<svg xmlns="http://www.w3.org/2000/svg" viewBox="0 0 500 500"><g id="freepik--background-simple--inject-51"><path d="M361.23,73.91A119.66,119.66,0,0,1,316,47.73C298.07,31.38,265,11,215.53,18.81,136.46,31.25,106.25,75.68,90.26,142.32S-17.25,288.92,20.07,359.11s108.39,112,222.12,96,129.72-58.65,148.38-122.62,87.07-95.95,90.62-164.37C483.75,118.88,405.42,87.6,361.23,73.91Z" style="fill:#82CB62"></path><path d="M361.23,73.91A119.66,119.66,0,0,1,316,47.73C298.07,31.38,265,11,215.53,18.81,136.46,31.25,106.25,75.68,90.26,142.32S-17.25,288.92,20.07,359.11s108.39,112,222.12,96,129.72-58.65,148.38-122.62,87.07-95.95,90.62-164.37C483.75,118.88,405.42,87.6,361.23,73.91Z" style="fill:#fff;opacity:0.7000000000000001"></path></g><g id="freepik--Picture--inject-51"><g style="opacity:0.30000000000000004"><rect x="362.92" y="49.46" width="87" height="118" style="fill:none;stroke:#000;stroke-linejoin:round"></rect><rect x="368.08" y="56.46" width="76.68" height="104" style="fill:none;stroke:#000;stroke-linejoin:round"></rect><rect x="386.51" y="81.46" width="39.81" height="54" style="fill:none;stroke:#000;stroke-linejoin:round"></rect></g></g><g id="freepik--Plant--inject-51"><line x1="424.24" y1="281.22" x2="438.43" y2="417.19" style="fill:none;stroke:#263238;stroke-linecap:round;stroke-linejoin:round"></line><line x1="435.64" y1="390.6" x2="429.71" y2="384.37" style="fill:none;stroke:#263238;stroke-linecap:round;stroke-linejoin:round"></line><path d="M431.67,386.41a7.31,7.31,0,0,0-2.56-5.46c-1.65-1.47-10.34-5.13-11.17-2.07C417.05,382.21,425.94,388.75,431.67,386.41Z" style="fill:#82CB62;stroke:#263238;stroke-linecap:round;stroke-linejoin:round"></path><line x1="431.67" y1="386.41" x2="423.4" y2="381.25" style="fill:none;stroke:#263238;stroke-linecap:round;stroke-linejoin:round"></line><line x1="437.11" y1="404.64" x2="431.33" y2="399.84" style="fill:none;stroke:#263238;stroke-linecap:round;stroke-linejoin:round"></line><path d="M433.28,401.87a7.27,7.27,0,0,0-2.56-5.46c-1.65-1.47-10.34-5.13-11.16-2.07C418.66,397.67,427.55,404.21,433.28,401.87Z" style="fill:#82CB62;stroke:#263238;stroke-linecap:round;stroke-linejoin:round"></path><line x1="433.28" y1="401.87" x2="425.01" y2="396.72" style="fill:none;stroke:#263238;stroke-linecap:round;stroke-linejoin:round"></line><line x1="431.62" y1="351.89" x2="425.78" y2="346.64" style="fill:none;stroke:#263238;stroke-linecap:round;stroke-linejoin:round"></line><path d="M427.73,348.67a7.29,7.29,0,0,0-2.56-5.45c-1.65-1.48-10.34-5.13-11.17-2.07C413.11,344.48,422,351,427.73,348.67Z" style="fill:#82CB62;stroke:#263238;stroke-linecap:round;stroke-linejoin:round"></path><line x1="427.73" y1="348.67" x2="419.46" y2="343.52" style="fill:none;stroke:#263238;stroke-linecap:round;stroke-linejoin:round"></line><line x1="433.25" y1="368.34" x2="427.39" y2="362.1" style="fill:none;stroke:#263238;stroke-linecap:round;stroke-linejoin:round"></line><path d="M429.34,364.14a7.26,7.26,0,0,0-2.56-5.46c-1.65-1.47-10.34-5.13-11.16-2.07C414.72,359.94,423.62,366.48,429.34,364.14Z" style="fill:#82CB62;stroke:#263238;stroke-linecap:round;stroke-linejoin:round"></path><line x1="429.34" y1="364.14" x2="421.07" y2="358.98" style="fill:none;stroke:#263238;stroke-linecap:round;stroke-linejoin:round"></line><line x1="429.01" y1="327.49" x2="423.15" y2="321.52" style="fill:none;stroke:#263238;stroke-linecap:round;stroke-linejoin:round"></line><path d="M425.11,323.56a7.31,7.31,0,0,0-2.56-5.46c-1.65-1.48-10.34-5.13-11.17-2.07C410.49,319.36,419.38,325.9,425.11,323.56Z" style="fill:#82CB62;stroke:#263238;stroke-linecap:round;stroke-linejoin:round"></path><line x1="425.11" y1="323.56" x2="416.84" y2="318.4" style="fill:none;stroke:#263238;stroke-linecap:round;stroke-linejoin:round"></line><line x1="426.19" y1="300.63" x2="420.52" y2="296.29" style="fill:none;stroke:#263238;stroke-linecap:round;stroke-linejoin:round"></line><path d="M422.48,298.33a7.31,7.31,0,0,0-2.56-5.46c-1.66-1.47-10.35-5.13-11.17-2.07C407.85,294.13,416.75,300.67,422.48,298.33Z" style="fill:#82CB62;stroke:#263238;stroke-linecap:round;stroke-linejoin:round"></path><line x1="422.48" y1="298.33" x2="414.2" y2="293.17" style="fill:none;stroke:#263238;stroke-linecap:round;stroke-linejoin:round"></line><line x1="435.07" y1="382.02" x2="439.96" y2="374.04" style="fill:none;stroke:#263238;stroke-linecap:round;stroke-linejoin:round"></line><path d="M438.46,376.44a7.29,7.29,0,0,1,1.38-5.87c1.31-1.78,9.06-7.16,10.5-4.33C451.91,369.31,444.55,377.54,438.46,376.44Z" style="fill:none;stroke:#263238;stroke-linecap:round;stroke-linejoin:round"></path><line x1="438.46" y1="376.44" x2="444.28" y2="370.97" style="fill:none;stroke:#263238;stroke-linecap:round;stroke-linejoin:round"></line><line x1="430.82" y1="341.33" x2="435.71" y2="333.35" style="fill:none;stroke:#263238;stroke-linecap:round;stroke-linejoin:round"></line><path d="M434.22,335.74a7.27,7.27,0,0,1,1.38-5.86c1.31-1.79,7.37-6.25,8.81-3.43C446,329.52,440.31,336.85,434.22,335.74Z" style="fill:#82CB62;stroke:#263238;stroke-linecap:round;stroke-linejoin:round"></path><line x1="434.22" y1="335.74" x2="441.67" y2="328.62" style="fill:none;stroke:#263238;stroke-linecap:round;stroke-linejoin:round"></line><line x1="428.95" y1="323.44" x2="433.84" y2="315.47" style="fill:none;stroke:#263238;stroke-linecap:round;stroke-linejoin:round"></line><path d="M432.35,317.86a7.29,7.29,0,0,1,1.38-5.87c1.31-1.78,9.06-7.15,10.5-4.33C445.79,310.74,438.44,319,432.35,317.86Z" style="fill:#82CB62;stroke:#263238;stroke-linecap:round;stroke-linejoin:round"></path><line x1="432.35" y1="317.86" x2="439.8" y2="310.74" style="fill:none;stroke:#263238;stroke-linecap:round;stroke-linejoin:round"></line><line x1="426.22" y1="297.23" x2="431.11" y2="289.25" style="fill:none;stroke:#263238;stroke-linecap:round;stroke-linejoin:round"></line><path d="M429.62,291.65a7.26,7.26,0,0,1,1.37-5.87c1.32-1.78,9.06-7.16,10.5-4.33C443.06,284.52,435.7,292.75,429.62,291.65Z" style="fill:#82CB62;stroke:#263238;stroke-linecap:round;stroke-linejoin:round"></path><line x1="429.62" y1="291.65" x2="437.06" y2="284.53" style="fill:none;stroke:#263238;stroke-linecap:round;stroke-linejoin:round"></line><path d="M424.12,280.47a7.29,7.29,0,0,1,1.38-5.87c1.31-1.79,9.06-7.16,10.5-4.33C437.57,273.34,430.21,281.57,424.12,280.47Z" style="fill:#82CB62;stroke:#263238;stroke-linecap:round;stroke-linejoin:round"></path><line x1="424.12" y1="280.47" x2="431.57" y2="273.35" style="fill:none;stroke:#263238;stroke-linecap:round;stroke-linejoin:round"></line><path d="M424.56,280.77a7.3,7.3,0,0,1-5.69-2c-1.64-1.49-6.17-9.76-3.21-10.9C418.88,266.66,426.29,274.83,424.56,280.77Z" style="fill:#82CB62;stroke:#263238;stroke-linecap:round;stroke-linejoin:round"></path><line x1="424.56" y1="280.77" x2="418.26" y2="272.62" style="fill:none;stroke:#263238;stroke-linecap:round;stroke-linejoin:round"></line><line x1="445.5" y1="244.58" x2="445.5" y2="416.52" style="fill:none;stroke:#263238;stroke-linecap:round;stroke-linejoin:round"></line><line x1="461.67" y1="299.95" x2="447.56" y2="435.92" style="fill:none;stroke:#263238;stroke-linecap:round;stroke-linejoin:round"></line><line x1="450.54" y1="408.14" x2="447.28" y2="404.41" style="fill:none;stroke:#263238;stroke-linecap:round;stroke-linejoin:round"></line><path d="M447.28,404.41a7.27,7.27,0,0,0-1.39-5.87c-1.31-1.78-9.06-7.15-10.5-4.32C433.83,397.29,441.19,405.52,447.28,404.41Z" style="fill:#82CB62;stroke:#263238;stroke-linecap:round;stroke-linejoin:round"></path><line x1="447.28" y1="404.41" x2="440.24" y2="397.66" style="fill:none;stroke:#263238;stroke-linecap:round;stroke-linejoin:round"></line><line x1="454.53" y1="369.32" x2="449.68" y2="365.27" style="fill:none;stroke:#263238;stroke-linecap:round;stroke-linejoin:round"></line><path d="M451.19,366.67a7.27,7.27,0,0,0-1.38-5.86c-1.31-1.79-9.06-7.15-10.5-4.33C437.75,359.55,445.1,367.78,451.19,366.67Z" style="fill:#82CB62;stroke:#263238;stroke-linecap:round;stroke-linejoin:round"></path><line x1="451.19" y1="366.67" x2="444.16" y2="359.92" style="fill:none;stroke:#263238;stroke-linecap:round;stroke-linejoin:round"></line><line x1="452.99" y1="387.71" x2="448.09" y2="379.74" style="fill:none;stroke:#263238;stroke-linecap:round;stroke-linejoin:round"></line><path d="M449.59,382.14a7.29,7.29,0,0,0-1.38-5.87c-1.32-1.78-9.07-7.15-10.5-4.33C436.14,375,443.5,383.25,449.59,382.14Z" style="fill:#82CB62;stroke:#263238;stroke-linecap:round;stroke-linejoin:round"></path><line x1="449.59" y1="382.14" x2="442.55" y2="375.39" style="fill:none;stroke:#263238;stroke-linecap:round;stroke-linejoin:round"></line><line x1="456.98" y1="344.54" x2="452.31" y2="339.16" style="fill:none;stroke:#263238;stroke-linecap:round;stroke-linejoin:round"></line><path d="M453.8,341.55a7.29,7.29,0,0,0-1.38-5.87c-1.32-1.78-9.07-7.14-10.5-4.32C440.35,334.43,447.71,342.66,453.8,341.55Z" style="fill:#82CB62;stroke:#263238;stroke-linecap:round;stroke-linejoin:round"></path><line x1="453.8" y1="341.55" x2="446.76" y2="334.8" style="fill:none;stroke:#263238;stroke-linecap:round;stroke-linejoin:round"></line><line x1="459.43" y1="320.93" x2="454.92" y2="313.93" style="fill:none;stroke:#263238;stroke-linecap:round;stroke-linejoin:round"></line><path d="M456.42,316.32a7.27,7.27,0,0,0-1.39-5.87c-1.31-1.78-9.06-7.14-10.5-4.32C443,309.2,450.33,317.43,456.42,316.32Z" style="fill:#82CB62;stroke:#263238;stroke-linecap:round;stroke-linejoin:round"></path><line x1="456.42" y1="316.32" x2="449.38" y2="309.57" style="fill:none;stroke:#263238;stroke-linecap:round;stroke-linejoin:round"></line><line x1="451.5" y1="400.81" x2="457.93" y2="394.01" style="fill:none;stroke:#263238;stroke-linecap:round;stroke-linejoin:round"></line><path d="M456,396.05a7.26,7.26,0,0,1,2.56-5.46c1.65-1.47,10.34-5.14,11.16-2.08C470.6,391.84,461.71,398.39,456,396.05Z" style="fill:#82CB62;stroke:#263238;stroke-linecap:round;stroke-linejoin:round"></path><line x1="455.98" y1="396.05" x2="464.74" y2="390.62" style="fill:none;stroke:#263238;stroke-linecap:round;stroke-linejoin:round"></line><line x1="455.73" y1="360.12" x2="462.16" y2="353.32" style="fill:none;stroke:#263238;stroke-linecap:round;stroke-linejoin:round"></line><path d="M460.2,355.35a7.29,7.29,0,0,1,2.56-5.45c1.65-1.48,10.34-5.14,11.16-2.08C474.82,351.15,465.93,357.69,460.2,355.35Z" style="fill:#82CB62;stroke:#263238;stroke-linecap:round;stroke-linejoin:round"></path><line x1="460.2" y1="355.35" x2="468.96" y2="349.92" style="fill:none;stroke:#263238;stroke-linecap:round;stroke-linejoin:round"></line><line x1="457.58" y1="342.23" x2="464.01" y2="335.43" style="fill:none;stroke:#263238;stroke-linecap:round;stroke-linejoin:round"></line><path d="M462.06,337.47a7.27,7.27,0,0,1,2.56-5.46c1.65-1.47,10.33-5.13,11.16-2.07C476.68,333.27,467.79,339.81,462.06,337.47Z" style="fill:#82CB62;stroke:#263238;stroke-linecap:round;stroke-linejoin:round"></path><line x1="462.06" y1="337.47" x2="470.81" y2="332.04" style="fill:none;stroke:#263238;stroke-linecap:round;stroke-linejoin:round"></line><line x1="460.23" y1="314.67" x2="466.73" y2="309.22" style="fill:none;stroke:#263238;stroke-linecap:round;stroke-linejoin:round"></line><path d="M464.78,311.25a7.25,7.25,0,0,1,2.56-5.45c1.65-1.48,10.33-5.14,11.16-2.08C479.4,307.05,470.51,313.59,464.78,311.25Z" style="fill:#82CB62;stroke:#263238;stroke-linecap:round;stroke-linejoin:round"></path><line x1="464.78" y1="311.25" x2="473.53" y2="305.82" style="fill:none;stroke:#263238;stroke-linecap:round;stroke-linejoin:round"></line><path d="M461.71,299.18a7.29,7.29,0,0,1,2.55-5.46c1.65-1.47,10.34-5.13,11.17-2.07C476.33,295,467.44,301.52,461.71,299.18Z" style="fill:#82CB62;stroke:#263238;stroke-linecap:round;stroke-linejoin:round"></path><line x1="461.71" y1="299.18" x2="470.46" y2="293.75" style="fill:none;stroke:#263238;stroke-linecap:round;stroke-linejoin:round"></line><path d="M462.07,299.57a7.28,7.28,0,0,1-5.16-3.11c-1.3-1.8-4-10.82-.9-11.32C459.42,284.59,465,294.12,462.07,299.57Z" style="fill:#82CB62;stroke:#263238;stroke-linecap:round;stroke-linejoin:round"></path><line x1="462.07" y1="299.57" x2="457.58" y2="290.29" style="fill:none;stroke:#263238;stroke-linecap:round;stroke-linejoin:round"></line><line x1="445.27" y1="390.35" x2="439.94" y2="383.25" style="fill:none;stroke:#263238;stroke-linecap:round;stroke-linejoin:round"></line><path d="M441.68,385.47a7.3,7.3,0,0,0-2-5.69c-1.49-1.64-9.76-6.18-10.89-3.22C427.57,379.78,435.74,387.21,441.68,385.47Z" style="fill:#82CB62;stroke:#263238;stroke-linecap:round;stroke-linejoin:round"></path><line x1="441.68" y1="385.47" x2="433.98" y2="379.49" style="fill:none;stroke:#263238;stroke-linecap:round;stroke-linejoin:round"></line><line x1="445.45" y1="356.06" x2="439.94" y2="350.93" style="fill:none;stroke:#263238;stroke-linecap:round;stroke-linejoin:round"></line><path d="M441.68,353.16a7.3,7.3,0,0,0-2-5.69c-1.49-1.64-9.76-6.18-10.89-3.22C427.57,347.47,435.74,354.89,441.68,353.16Z" style="fill:#82CB62;stroke:#263238;stroke-linecap:round;stroke-linejoin:round"></path><line x1="441.68" y1="353.16" x2="433.98" y2="347.17" style="fill:none;stroke:#263238;stroke-linecap:round;stroke-linejoin:round"></line><line x1="445.64" y1="320.42" x2="439.94" y2="312.99" style="fill:none;stroke:#263238;stroke-linecap:round;stroke-linejoin:round"></line><path d="M441.68,315.22a7.3,7.3,0,0,0-2-5.69c-1.49-1.64-9.76-6.18-10.89-3.22C427.57,309.53,435.74,317,441.68,315.22Z" style="fill:#82CB62;stroke:#263238;stroke-linecap:round;stroke-linejoin:round"></path><line x1="441.68" y1="315.22" x2="433.98" y2="309.24" style="fill:none;stroke:#263238;stroke-linecap:round;stroke-linejoin:round"></line><line x1="445.27" y1="292.54" x2="439.94" y2="287.74" style="fill:none;stroke:#263238;stroke-linecap:round;stroke-linejoin:round"></line><path d="M441.68,290a7.33,7.33,0,0,0-2-5.7c-1.49-1.63-9.76-6.17-10.89-3.21C427.57,284.27,435.74,291.7,441.68,290Z" style="fill:#82CB62;stroke:#263238;stroke-linecap:round;stroke-linejoin:round"></path><line x1="441.68" y1="289.97" x2="433.98" y2="283.98" style="fill:none;stroke:#263238;stroke-linecap:round;stroke-linejoin:round"></line><line x1="445.57" y1="267.27" x2="440.05" y2="263.22" style="fill:none;stroke:#263238;stroke-linecap:round;stroke-linejoin:round"></line><path d="M441.68,264.6a7.3,7.3,0,0,0-2-5.69c-1.49-1.64-9.76-6.18-10.89-3.22C427.57,258.91,435.74,266.33,441.68,264.6Z" style="fill:#82CB62;stroke:#263238;stroke-linecap:round;stroke-linejoin:round"></path><line x1="441.68" y1="264.6" x2="433.98" y2="258.61" style="fill:none;stroke:#263238;stroke-linecap:round;stroke-linejoin:round"></line><line x1="446.62" y1="398.94" x2="451.2" y2="393.11" style="fill:none;stroke:#263238;stroke-linecap:round;stroke-linejoin:round"></line><path d="M449.47,395.34a7.3,7.3,0,0,1,2-5.69c1.49-1.64,9.75-6.18,10.89-3.22C463.58,389.65,455.41,397.07,449.47,395.34Z" style="fill:#82CB62;stroke:#263238;stroke-linecap:round;stroke-linejoin:round"></path><line x1="449.47" y1="395.34" x2="457.62" y2="389.03" style="fill:none;stroke:#263238;stroke-linecap:round;stroke-linejoin:round"></line><line x1="445.51" y1="349.15" x2="451.2" y2="341.72" style="fill:none;stroke:#263238;stroke-linecap:round;stroke-linejoin:round"></line><path d="M449.47,344a7.33,7.33,0,0,1,2-5.7c1.49-1.63,9.75-6.17,10.89-3.21C463.58,338.25,455.41,345.68,449.47,344Z" style="fill:#82CB62;stroke:#263238;stroke-linecap:round;stroke-linejoin:round"></path><line x1="449.47" y1="343.95" x2="457.62" y2="337.64" style="fill:none;stroke:#263238;stroke-linecap:round;stroke-linejoin:round"></line><line x1="445.51" y1="323.78" x2="451.2" y2="316.35" style="fill:none;stroke:#263238;stroke-linecap:round;stroke-linejoin:round"></line><path d="M449.47,318.58a7.3,7.3,0,0,1,2-5.69c1.49-1.64,9.75-6.18,10.89-3.22C463.58,312.89,455.41,320.31,449.47,318.58Z" style="fill:#82CB62;stroke:#263238;stroke-linecap:round;stroke-linejoin:round"></path><line x1="449.47" y1="318.58" x2="457.62" y2="312.27" style="fill:none;stroke:#263238;stroke-linecap:round;stroke-linejoin:round"></line><line x1="445.51" y1="290.25" x2="451.2" y2="282.83" style="fill:none;stroke:#263238;stroke-linecap:round;stroke-linejoin:round"></line><path d="M449.47,285.06a7.33,7.33,0,0,1,2-5.7c1.49-1.64,9.75-6.17,10.89-3.21C463.58,279.36,455.41,286.79,449.47,285.06Z" style="fill:#82CB62;stroke:#263238;stroke-linecap:round;stroke-linejoin:round"></path><line x1="449.47" y1="285.06" x2="457.62" y2="278.75" style="fill:none;stroke:#263238;stroke-linecap:round;stroke-linejoin:round"></line><line x1="445.76" y1="261.32" x2="451.34" y2="256.96" style="fill:none;stroke:#263238;stroke-linecap:round;stroke-linejoin:round"></line><path d="M449.47,258.7a7.33,7.33,0,0,1,2-5.7c1.49-1.63,9.75-6.17,10.89-3.21C463.58,253,455.41,260.43,449.47,258.7Z" style="fill:#82CB62;stroke:#263238;stroke-linecap:round;stroke-linejoin:round"></path><line x1="449.47" y1="258.7" x2="457.62" y2="252.39" style="fill:none;stroke:#263238;stroke-linecap:round;stroke-linejoin:round"></line><path d="M445.17,247a7.33,7.33,0,0,1,2-5.7c1.49-1.63,9.75-6.17,10.89-3.21C459.28,241.31,451.11,248.74,445.17,247Z" style="fill:#82CB62;stroke:#263238;stroke-linecap:round;stroke-linejoin:round"></path><line x1="445.17" y1="247.01" x2="453.32" y2="240.7" style="fill:none;stroke:#263238;stroke-linecap:round;stroke-linejoin:round"></line><path d="M445.57,247.36a7.29,7.29,0,0,1-5.46-2.57c-1.47-1.65-5.12-10.35-2.05-11.17C441.39,232.73,447.91,241.63,445.57,247.36Z" style="fill:#82CB62;stroke:#263238;stroke-linecap:round;stroke-linejoin:round"></path><line x1="445.57" y1="247.36" x2="440.15" y2="238.59" style="fill:none;stroke:#263238;stroke-linecap:round;stroke-linejoin:round"></line><polygon points="452.57 461.12 434.36 461.12 432.09 415.13 454.85 415.13 452.57 461.12" style="fill:#263238;stroke:#263238;stroke-linecap:round;stroke-linejoin:round"></polygon></g><g id="freepik--Sofa--inject-51"><g style="opacity:0.30000000000000004"><path d="M355.2,371.46V279.37A13.23,13.23,0,0,0,342,266.14H221V372.38" style="fill:none;stroke:#000;stroke-linejoin:round"></path><path d="M222,266.14H98.77a13.22,13.22,0,0,0-13.22,13.23v92.09" style="fill:none;stroke:#000;stroke-linejoin:round"></path><path d="M367.15,380.26v31H221V371.46H358.35A8.8,8.8,0,0,1,367.15,380.26Z" style="fill:none;stroke:#000;stroke-linejoin:round"></path><path d="M222.16,371.46H82.39a8.8,8.8,0,0,0-8.8,8.8v31H222.16" style="fill:none;stroke:#000;stroke-linejoin:round"></path><rect x="73.59" y="411.23" width="293.8" height="49.89" style="fill:none;stroke:#000;stroke-linejoin:round"></rect><path d="M85.55,318.62a8.89,8.89,0,0,0-6.41-2.73H40.6a8.86,8.86,0,0,0-8.87,8.86V452.26a8.87,8.87,0,0,0,8.87,8.86H79.14" style="fill:none;stroke:#000;stroke-linejoin:round"></path><path d="M358.53,461.12h38.53a8.87,8.87,0,0,0,8.87-8.86V324.75a8.87,8.87,0,0,0-8.87-8.86H358.53a8.74,8.74,0,0,0-3.33.65" style="fill:none;stroke:#000;stroke-linejoin:round"></path></g></g><g id="freepik--Floor--inject-51"><line x1="419" y1="461.12" x2="476.38" y2="461.12" style="fill:none;stroke:#263238;stroke-miterlimit:10"></line><line x1="40.5" y1="461.12" x2="411" y2="461.12" style="fill:none;stroke:#263238;stroke-miterlimit:10"></line><line x1="17.4" y1="461.12" x2="34.28" y2="461.12" style="fill:none;stroke:#263238;stroke-miterlimit:10"></line></g><g id="freepik--Device--inject-51"><path d="M355.18,46.38H302.11l-.05.2c-1.57,5.65-5.19,9.32-9.19,9.32h-2.31c-4,0-7.62-3.67-9.19-9.32l-.05-.2H228.25a26.78,26.78,0,0,0-26.77,26.77V392.22A26.77,26.77,0,0,0,228.25,419H355.18a26.76,26.76,0,0,0,26.76-26.76V73.15A26.77,26.77,0,0,0,355.18,46.38Z" style="fill:#263238;stroke:#263238;stroke-linecap:round;stroke-linejoin:round"></path><path d="M355.18,46.38H302.11l-.05.2c-1.57,5.65-5.19,9.32-9.19,9.32h-2.31c-4,0-7.62-3.67-9.19-9.32l-.05-.2H228.25a26.78,26.78,0,0,0-26.77,26.77V392.22A26.77,26.77,0,0,0,228.25,419H355.18a26.76,26.76,0,0,0,26.76-26.76V73.15A26.77,26.77,0,0,0,355.18,46.38Z" style="fill:#fff;opacity:0.30000000000000004"></path><path d="M201.48,71.67V392.22A26.77,26.77,0,0,0,228.25,419H355.18a26.76,26.76,0,0,0,26.76-26.76V71.67Z" style="fill:#fff;stroke:#263238;stroke-linecap:round;stroke-linejoin:round"></path><path d="M213,125V115.2h-1.81v-1.53h5.66v1.53H215.1V125Z" style="fill:#263238"></path><path d="M217.92,125V113.67h2.71a6.05,6.05,0,0,1,1.94.27,2.27,2.27,0,0,1,1.2.93,3.33,3.33,0,0,1,.42,1.8,5.22,5.22,0,0,1-.13,1.23,2.33,2.33,0,0,1-.42.93,2,2,0,0,1-.84.6l1.58,5.58h-2.07l-1.37-5.19H220V125Zm2.07-6.49h.64a2.16,2.16,0,0,0,1-.18,1,1,0,0,0,.51-.56,2.77,2.77,0,0,0,.16-1,2.16,2.16,0,0,0-.32-1.28,1.42,1.42,0,0,0-1.2-.42H220Z" style="fill:#263238"></path><path d="M225.19,125l2.27-11.34h2.22L231.94,125H230l-.44-2.62h-2l-.46,2.62Zm2.62-3.93h1.54l-.77-4.76Z" style="fill:#263238"></path><path d="M233,125V113.67h1.44l2.76,6.47v-6.47h1.71V125h-1.37l-2.77-6.77V125Z" style="fill:#263238"></path><path d="M243.51,125.16a3.43,3.43,0,0,1-1.71-.39,2.58,2.58,0,0,1-1-1.17,5.19,5.19,0,0,1-.39-1.89l1.78-.35a5.5,5.5,0,0,0,.16,1.16,1.66,1.66,0,0,0,.41.78,1,1,0,0,0,.72.27.81.81,0,0,0,.71-.3,1.31,1.31,0,0,0,.21-.76,2,2,0,0,0-.34-1.22,4.86,4.86,0,0,0-.89-1l-1.43-1.26a4.37,4.37,0,0,1-1-1.16,3.14,3.14,0,0,1-.35-1.57,2.71,2.71,0,0,1,.78-2.08,3,3,0,0,1,2.14-.72,3.23,3.23,0,0,1,1.33.24,2.06,2.06,0,0,1,.85.68,3.23,3.23,0,0,1,.47,1,5.41,5.41,0,0,1,.19,1.16l-1.76.31a6.3,6.3,0,0,0-.12-1,1.36,1.36,0,0,0-.32-.66.91.91,0,0,0-.68-.23.86.86,0,0,0-.71.3,1.16,1.16,0,0,0-.24.75,1.7,1.7,0,0,0,.24.94,3.3,3.3,0,0,0,.68.76l1.41,1.25a5.68,5.68,0,0,1,1.2,1.38,3.53,3.53,0,0,1,.5,1.91,2.85,2.85,0,0,1-.36,1.44,2.61,2.61,0,0,1-1,1A3,3,0,0,1,243.51,125.16Z" style="fill:#263238"></path><path d="M247.46,125V113.67h2.07v9.91h2.74V125Z" style="fill:#263238"></path><path d="M252.77,125,255,113.67h2.21L259.52,125H257.6l-.44-2.62h-2l-.46,2.62Zm2.62-3.93h1.54l-.77-4.76Z" style="fill:#263238"></path><path d="M261.26,125V115.2h-1.81v-1.53h5.66v1.53h-1.78V125Z" style="fill:#263238"></path><path d="M269.17,125.16a3.59,3.59,0,0,1-1.92-.44,2.44,2.44,0,0,1-1-1.29,5.66,5.66,0,0,1-.31-2V117.2a5.51,5.51,0,0,1,.31-2,2.38,2.38,0,0,1,1-1.25,4.55,4.55,0,0,1,3.86,0,2.48,2.48,0,0,1,1,1.25,5.51,5.51,0,0,1,.31,2v4.25a5.54,5.54,0,0,1-.31,2,2.54,2.54,0,0,1-1,1.29A3.59,3.59,0,0,1,269.17,125.16Zm0-1.52a1.1,1.1,0,0,0,.76-.23,1,1,0,0,0,.33-.61,3.82,3.82,0,0,0,.09-.85v-5.23a3.7,3.7,0,0,0-.09-.85,1,1,0,0,0-.33-.6,1.15,1.15,0,0,0-.76-.21,1,1,0,0,0-1.08.81,3.72,3.72,0,0,0-.08.85V122a4.57,4.57,0,0,0,.07.85,1.07,1.07,0,0,0,.33.61A1.11,1.11,0,0,0,269.17,123.64Z" style="fill:#263238"></path><path d="M274,125V113.67h2.72a6.09,6.09,0,0,1,1.94.27,2.34,2.34,0,0,1,1.2.93,3.43,3.43,0,0,1,.41,1.8,5.83,5.83,0,0,1-.12,1.23,2.49,2.49,0,0,1-.43.93,2,2,0,0,1-.83.6l1.58,5.58h-2.07L277,119.82H276V125Zm2.07-6.49h.65a2.16,2.16,0,0,0,1-.18,1.08,1.08,0,0,0,.51-.56,2.79,2.79,0,0,0,.15-1,2.16,2.16,0,0,0-.31-1.28,1.42,1.42,0,0,0-1.2-.42H276Z" style="fill:#263238"></path><line x1="354.76" y1="113" x2="369.18" y2="113" style="fill:none;stroke:#263238;stroke-miterlimit:10"></line><line x1="354.76" y1="118.55" x2="369.18" y2="118.55" style="fill:none;stroke:#263238;stroke-miterlimit:10"></line><line x1="354.76" y1="124.1" x2="369.18" y2="124.1" style="fill:none;stroke:#263238;stroke-miterlimit:10"></line><rect x="208.89" y="234.87" width="165.03" height="83.28" rx="5.4" style="fill:#fff;stroke:#263238;stroke-linecap:round;stroke-linejoin:round"></rect><path d="M214.28,234.87H368.52a5.4,5.4,0,0,1,5.4,5.4v17.89a0,0,0,0,1,0,0h-165a0,0,0,0,1,0,0V240.27A5.4,5.4,0,0,1,214.28,234.87Z" style="fill:#82CB62;stroke:#263238;stroke-linecap:round;stroke-linejoin:round"></path><path d="M216.36,252.12a2.8,2.8,0,0,1-1.53-.38,2.43,2.43,0,0,1-.92-1.08,5.07,5.07,0,0,1-.38-1.62l.94-.28a6.49,6.49,0,0,0,.25,1.27,2,2,0,0,0,.58.9,1.59,1.59,0,0,0,2.67-1.31,2.26,2.26,0,0,0-.37-1.3,6.75,6.75,0,0,0-1-1.15l-2-1.92a3.74,3.74,0,0,1-.78-1.07,2.85,2.85,0,0,1-.25-1.21,2.29,2.29,0,0,1,.7-1.81,2.69,2.69,0,0,1,1.86-.63,3.42,3.42,0,0,1,1.09.16,2,2,0,0,1,.82.49,2.39,2.39,0,0,1,.54.89,5.66,5.66,0,0,1,.27,1.33l-.91.24a5.62,5.62,0,0,0-.23-1.23,1.54,1.54,0,0,0-.55-.77,2,2,0,0,0-2.18.1,1.36,1.36,0,0,0-.44,1.13,1.91,1.91,0,0,0,.17.84,2.92,2.92,0,0,0,.62.81l2,1.89a7.44,7.44,0,0,1,1.17,1.4,3.21,3.21,0,0,1,.49,1.74,2.85,2.85,0,0,1-.33,1.43,2.12,2.12,0,0,1-.92.86A3.06,3.06,0,0,1,216.36,252.12Z" style="fill:#263238"></path><path d="M220.39,252V240.64h2.72a2.91,2.91,0,0,1,1.6.38,2.09,2.09,0,0,1,.84,1,4.72,4.72,0,0,1,.25,1.58,4.14,4.14,0,0,1-.26,1.48,2.29,2.29,0,0,1-.85,1.09,2.75,2.75,0,0,1-1.57.4h-1.66V252Zm1.07-6.16h1.36a2.56,2.56,0,0,0,1.11-.2,1.23,1.23,0,0,0,.62-.68,3.45,3.45,0,0,0,.2-1.29,4.31,4.31,0,0,0-.17-1.35,1.11,1.11,0,0,0-.58-.67,2.85,2.85,0,0,0-1.17-.19h-1.37Z" style="fill:#263238"></path><path d="M226,252l2.39-11.34h1.12L231.89,252h-1l-.56-3h-2.7l-.58,3Zm1.76-3.8h2.41l-1.22-6.12Z" style="fill:#263238"></path><path d="M233.26,252V240.64H234l3.61,8.81v-8.81h.93V252h-.76l-3.64-8.9V252Z" style="fill:#263238"></path><path d="M240.57,252V240.64h1.06V252Z" style="fill:#263238"></path><path d="M246.06,252.12a2.82,2.82,0,0,1-1.54-.38,2.41,2.41,0,0,1-.91-1.08,4.59,4.59,0,0,1-.38-1.62l.94-.28a5.83,5.83,0,0,0,.25,1.27,1.89,1.89,0,0,0,.57.9,1.62,1.62,0,0,0,1.08.33,1.64,1.64,0,0,0,1.18-.4,1.62,1.62,0,0,0,.42-1.24,2.33,2.33,0,0,0-.37-1.3,6.85,6.85,0,0,0-1-1.15l-2-1.92a3.6,3.6,0,0,1-.79-1.07,3,3,0,0,1-.25-1.21,2.33,2.33,0,0,1,.7-1.81,2.7,2.7,0,0,1,1.87-.63,3.31,3.31,0,0,1,1.08.16,2,2,0,0,1,.83.49,2.51,2.51,0,0,1,.53.89,5.2,5.2,0,0,1,.27,1.33l-.91.24a5.09,5.09,0,0,0-.23-1.23,1.54,1.54,0,0,0-.55-.77,1.69,1.69,0,0,0-1-.27,1.73,1.73,0,0,0-1.15.37,1.36,1.36,0,0,0-.45,1.13,2.07,2.07,0,0,0,.17.84,3,3,0,0,0,.63.81l2,1.89a7.38,7.38,0,0,1,1.16,1.4,3.13,3.13,0,0,1,.49,1.74,2.85,2.85,0,0,1-.33,1.43,2.07,2.07,0,0,1-.92.86A3,3,0,0,1,246.06,252.12Z" style="fill:#263238"></path><path d="M250.07,252V240.64h1.08v5h3.57v-5h1.07V252h-1.07v-5.51h-3.57V252Z" style="fill:#263238"></path><rect x="339.67" y="243.26" width="6.95" height="9.6" style="fill:#fff;stroke:#263238;stroke-linecap:round;stroke-linejoin:round"></rect><rect x="342.27" y="244.97" width="6.95" height="9.6" style="fill:#fff;stroke:#263238;stroke-linecap:round;stroke-linejoin:round"></rect><rect x="208.89" y="145.03" width="165.03" height="83.28" rx="5.4" style="fill:#fff;stroke:#263238;stroke-linecap:round;stroke-linejoin:round"></rect><path d="M214.28,145H368.52a5.4,5.4,0,0,1,5.4,5.4v17.89a0,0,0,0,1,0,0h-165a0,0,0,0,1,0,0V150.43A5.4,5.4,0,0,1,214.28,145Z" style="fill:#82CB62;stroke:#263238;stroke-linecap:round;stroke-linejoin:round"></path><path d="M213.94,162.15V150.81H218v.82h-3v4.26h2.46v.78H215v4.68h3v.8Z" style="fill:#263238"></path><path d="M219.53,162.15V150.81h.77l3.61,8.8v-8.8h.92v11.34h-.75l-3.64-8.91v8.91Z" style="fill:#263238"></path><path d="M229.35,162.3a2.76,2.76,0,0,1-1.67-.45,2.44,2.44,0,0,1-.86-1.26,6.43,6.43,0,0,1-.25-1.9v-4.43a6.68,6.68,0,0,1,.24-1.89,2.32,2.32,0,0,1,.87-1.23,3,3,0,0,1,1.76-.45,3,3,0,0,1,1.62.38,2.16,2.16,0,0,1,.86,1.11,5.4,5.4,0,0,1,.26,1.78v.39h-1V154a5.18,5.18,0,0,0-.14-1.35,1.47,1.47,0,0,0-.51-.8,1.91,1.91,0,0,0-1.08-.26,1.76,1.76,0,0,0-1.16.33,1.58,1.58,0,0,0-.51.93,6.74,6.74,0,0,0-.12,1.34v4.66a6.43,6.43,0,0,0,.14,1.42,1.53,1.53,0,0,0,.55.89,1.79,1.79,0,0,0,1.13.31,1.67,1.67,0,0,0,1.08-.31,1.63,1.63,0,0,0,.54-.91,5.78,5.78,0,0,0,.15-1.42v-1.33h-1.68v-.8h2.66v5.49h-.68l-.13-1.29a2.16,2.16,0,0,1-.69,1A2.13,2.13,0,0,1,229.35,162.3Z" style="fill:#263238"></path><path d="M234.07,162.15V150.81h1.07v10.54h3.22v.8Z" style="fill:#263238"></path><path d="M239.45,162.15V150.81h1.06v11.34Z" style="fill:#263238"></path><path d="M244.94,162.29a2.82,2.82,0,0,1-1.54-.39,2.36,2.36,0,0,1-.91-1.08,4.59,4.59,0,0,1-.38-1.61l.94-.28a5.74,5.74,0,0,0,.25,1.26,1.89,1.89,0,0,0,.57.9,1.62,1.62,0,0,0,1.08.33,1.68,1.68,0,0,0,1.18-.39,1.66,1.66,0,0,0,.42-1.25,2.3,2.3,0,0,0-.37-1.29,6.88,6.88,0,0,0-1-1.16l-2-1.92a3.48,3.48,0,0,1-.79-1.07,3,3,0,0,1-.25-1.21,2.34,2.34,0,0,1,.7-1.81,2.69,2.69,0,0,1,1.86-.63,3.62,3.62,0,0,1,1.09.16,2,2,0,0,1,.83.5,2.38,2.38,0,0,1,.53.88,5.2,5.2,0,0,1,.27,1.33l-.91.24a5,5,0,0,0-.23-1.22,1.56,1.56,0,0,0-.55-.78,1.71,1.71,0,0,0-1-.27,1.77,1.77,0,0,0-1.14.37,1.36,1.36,0,0,0-.45,1.13,2.07,2.07,0,0,0,.17.84,2.83,2.83,0,0,0,.63.81l2,1.89a7.38,7.38,0,0,1,1.16,1.4,3.18,3.18,0,0,1,.49,1.74,2.83,2.83,0,0,1-.33,1.43,2.07,2.07,0,0,1-.92.86A3,3,0,0,1,244.94,162.29Z" style="fill:#263238"></path><path d="M249,162.15V150.81H250v5h3.57v-5h1.07v11.34H253.6v-5.52H250v5.52Z" style="fill:#263238"></path><path d="M346.77,157.06h0a1.83,1.83,0,0,1-1.83-1.83v-4.35a1.83,1.83,0,0,1,1.83-1.84h0a1.83,1.83,0,0,1,1.83,1.84v4.35A1.83,1.83,0,0,1,346.77,157.06Z" style="fill:#fff;stroke:#263238;stroke-linecap:round;stroke-linejoin:round"></path><path d="M343.43,155.7h0a2.79,2.79,0,0,0,2.8,2.79h1a2.79,2.79,0,0,0,2.79-2.79h0" style="fill:none;stroke:#263238;stroke-linecap:round;stroke-linejoin:round"></path><line x1="346.81" y1="158.56" x2="346.81" y2="162.26" style="fill:none;stroke:#263238;stroke-miterlimit:10"></line><line x1="343.81" y1="162.19" x2="349.94" y2="162.19" style="fill:none;stroke:#263238;stroke-linecap:round;stroke-linejoin:round"></line><rect x="201.48" y="71.67" width="180.46" height="29.7" style="fill:#82CB62;stroke:#263238;stroke-linecap:round;stroke-linejoin:round"></rect><path d="M201.6,394.61A26.75,26.75,0,0,0,228.25,419H355.18a26.75,26.75,0,0,0,26.65-24.37Z" style="fill:#82CB62;stroke:#263238;stroke-linecap:round;stroke-linejoin:round"></path><path d="M355.18,46.38H302.11l-.05.2c-1.57,5.65-5.19,9.32-9.19,9.32h-2.31c-4,0-7.62-3.67-9.19-9.32l-.05-.2H228.25a26.78,26.78,0,0,0-26.77,26.77V78H381.94V73.15A26.77,26.77,0,0,0,355.18,46.38Z" style="fill:#fff;stroke:#263238;stroke-linecap:round;stroke-linejoin:round"></path><path d="M393.42,144.36V110.45h-3.06V67a26.77,26.77,0,0,0-26.77-26.76H219.84A26.77,26.77,0,0,0,193.07,67V411.34a26.77,26.77,0,0,0,26.77,26.76H363.59a26.77,26.77,0,0,0,26.77-26.76V173.27h3.06v-20h-3.06v-8.87ZM381.94,392.22A26.76,26.76,0,0,1,355.18,419H228.25a26.77,26.77,0,0,1-26.77-26.76V73.15a26.78,26.78,0,0,1,26.77-26.77h53.07l.05.2c1.57,5.65,5.19,9.32,9.19,9.32h2.31c4,0,7.62-3.67,9.19-9.32l.05-.2h53.07a26.77,26.77,0,0,1,26.76,26.77Z" style="fill:#707070;stroke:#263238;stroke-linecap:round;stroke-linejoin:round"></path><path d="M358.9,44H224.53a28.36,28.36,0,0,0-28.36,28.36V406.06a28.36,28.36,0,0,0,28.36,28.35H358.9a28.36,28.36,0,0,0,28.36-28.35V72.31A28.36,28.36,0,0,0,358.9,44Zm23,348.27A26.76,26.76,0,0,1,355.18,419H228.25a26.77,26.77,0,0,1-26.77-26.76V73.15a26.78,26.78,0,0,1,26.77-26.77h53.07l.05.2c1.57,5.65,5.19,9.32,9.19,9.32h2.31c4,0,7.62-3.67,9.19-9.32l.05-.2h53.07a26.77,26.77,0,0,1,26.76,26.77Z" style="fill:#263238;stroke:#263238;stroke-linecap:round;stroke-linejoin:round"></path><circle cx="291.16" cy="47.67" r="2.51" style="fill:#707070"></circle><path d="M217.52,57.3c0,2.54-2.85,3.45-2.87,5.39v.14h2.78v.85h-3.7V63c0-2.72,2.85-3.25,2.85-5.63,0-.87-.29-1.32-1-1.32s-1,.49-1,1.24V58h-.88v-.68c0-1.29.59-2.15,1.89-2.15S217.52,56,217.52,57.3Z" style="fill:#263238"></path><path d="M222.14,57.28v.22a1.68,1.68,0,0,1-1,1.74,1.67,1.67,0,0,1,1,1.74v.65c0,1.29-.61,2.14-1.91,2.14s-1.89-.85-1.89-2.14v-.58h.88v.64c0,.76.31,1.22,1,1.22s1-.45,1-1.3V61c0-.83-.35-1.23-1.06-1.25h-.51v-.85h.56a1,1,0,0,0,1-1.15v-.39c0-.87-.3-1.31-1-1.31s-1,.47-1,1.23v.43h-.88v-.39c0-1.29.6-2.12,1.89-2.12S222.14,56,222.14,57.28Z" style="fill:#263238"></path><path d="M224,57.92v1.17h-.91V57.92Zm0,4.59v1.17h-.91V62.51Z" style="fill:#263238"></path><path d="M225.86,58.68a1.36,1.36,0,0,1,1.25-.7c1.09,0,1.57.8,1.57,2v1.65c0,1.29-.61,2.14-1.9,2.14s-1.89-.85-1.89-2.14v-.56h.87v.62c0,.76.32,1.22,1,1.22s1-.46,1-1.22V60.05c0-.75-.31-1.21-1-1.21a.91.91,0,0,0-.95.9v.19h-.88l.23-4.68h3.33v.84H226Z" style="fill:#263238"></path><path d="M233.37,57.27v.16h-.88v-.22c0-.76-.32-1.2-1-1.2s-1,.45-1,1.36v1.89a1.36,1.36,0,0,1,1.37-.9c1.08,0,1.56.78,1.56,2v1.27c0,1.29-.64,2.14-1.93,2.14s-1.94-.85-1.94-2.14v-4.3c0-1.34.61-2.17,1.94-2.17S233.37,56,233.37,57.27Zm-2.91,3.16v1.26c0,.76.32,1.22,1,1.22s1-.46,1-1.22V60.43c0-.76-.32-1.22-1-1.22S230.46,59.67,230.46,60.43Z" style="fill:#263238"></path><rect x="323.05" y="57.64" width="2.38" height="5.95" style="fill:#263238"></rect><rect x="326.22" y="56.45" width="2.38" height="7.15" style="fill:#263238"></rect><rect x="329.4" y="55.6" width="2.38" height="7.99" style="fill:#263238"></rect><rect x="332.57" y="54.13" width="2.38" height="9.46" style="fill:#263238"></rect><path d="M364.42,63.43H350.13V54.7h14.29Zm-13.5-.79h12.7V55.49h-12.7Z" style="fill:#263238"></path><rect x="352.11" y="56.36" width="7.54" height="5.42" style="fill:#263238"></rect><rect x="363.92" y="58.04" width="1.8" height="2.06" style="fill:#263238"></rect><path d="M344.89,61.53a.52.52,0,0,1-.27-.07c-2.91-1.73-4.83-.13-4.91-.06a.53.53,0,1,1-.7-.8c.1-.09,2.56-2.2,6.16-.06a.53.53,0,0,1-.28,1Z" style="fill:#263238"></path><path d="M346,59.74a.48.48,0,0,1-.28-.08c-4.2-2.5-7-.08-7.05,0a.55.55,0,0,1-.76,0,.54.54,0,0,1,.05-.75s3.44-3,8.31-.06a.54.54,0,0,1,.19.73A.53.53,0,0,1,346,59.74Z" style="fill:#263238"></path><path d="M346.94,57.66a.54.54,0,0,1-.27-.07c-5.32-3.17-8.86-.19-9-.06a.54.54,0,0,1-.75-.05.52.52,0,0,1,0-.75s4.24-3.64,10.26-.06a.53.53,0,0,1,.18.73A.52.52,0,0,1,346.94,57.66Z" style="fill:#263238"></path><path d="M343.29,62.43A1.34,1.34,0,1,1,342,61.09,1.34,1.34,0,0,1,343.29,62.43Z" style="fill:#263238"></path></g><g id="freepik--Character--inject-51"><path d="M115,455.3s19.75,6.49,22.32,6.94,1.81,3.17-1.21,5.13-7.54,2.56-18.25,1.05-12.66-3.47-13.42-3.16-2.56,1.8-5.13.6-3.77-6-1.2-8.3S115,455.3,115,455.3Z" style="fill:#82CB62;stroke:#263238;stroke-linecap:round;stroke-linejoin:round"></path><path d="M138.81,463.76c-5.81,4.64-21.09,3.06-28.72,1a33.71,33.71,0,0,0-12.82-1,4.46,4.46,0,0,0,2,2.15c2.57,1.2,4.38-.3,5.13-.6s2.72,1.65,13.42,3.16,15.24.91,18.25-1.05C137.83,466.22,138.81,464.82,138.81,463.76Z" style="fill:#263238;stroke:#263238;stroke-linecap:round;stroke-linejoin:round"></path><path d="M101.23,460s6.93,6.33,12.51,9.5,7.54,5.28,4.83,8.44-4.83,2.42-16,0-17.79-7.09-17.79-7.09-.46,1.51-4.07.46S77.4,467.37,78.3,465,90.82,455,101.23,460Z" style="fill:#82CB62;stroke:#263238;stroke-linecap:round;stroke-linejoin:round"></path><path d="M118.57,477.92a5.87,5.87,0,0,0,.91-1.39,11.64,11.64,0,0,1-5.34,1.45c-4.42.06-18.4-4.33-24.08-7.58-4.67-2.67-10.43-2.59-12.34-2.48.07,1.45.82,2.73,3,3.37,3.61,1,4.07-.46,4.07-.46s6.63,4.68,17.79,7.09S115.85,481.09,118.57,477.92Z" style="fill:#263238;stroke:#263238;stroke-linecap:round;stroke-linejoin:round"></path><path d="M133.89,177.76a26,26,0,0,1,10.79,13.1c3.14,8.91,5.06,49.71,5.06,49.71l14.55-9.29s9.23-2.49,9.53,1.2-.92,10.39-.92,10.39-19.49,16.55-22.12,19.45-5.65,6.15-10.06,5.69S139,241.83,139,241.83Z" style="fill:#82CB62;stroke:#263238;stroke-linecap:round;stroke-linejoin:round"></path><path d="M164.29,231.28s3.15,8.17,8.61,11.59a68.11,68.11,0,0,1,.92-10.39C174.66,228.54,168.09,225.46,164.29,231.28Z" style="fill:#263238;stroke:#263238;stroke-linecap:round;stroke-linejoin:round"></path><path d="M136.86,291.07a453.15,453.15,0,0,1-5.62,56c-4.77,27.36-16,47.64-16.85,58s-1,30.61-1,34.83,1.36,2.87,1.51,6.64,0,8.74,0,8.74a53.47,53.47,0,0,1-7.69,3,36.06,36.06,0,0,1-4.53.9s.61,1.21-2.56-6.48-4.4-21.18-4.14-34.3,6.46-36.37,8.83-49.59,9.09-47,9.83-54.11,2.43-24.52,2.43-24.52a40.81,40.81,0,0,0,11.46.23C134.62,289.67,136.86,291.07,136.86,291.07Z" style="fill:#fff;stroke:#263238;stroke-linecap:round;stroke-linejoin:round"></path><path d="M119.76,291.93a46.75,46.75,0,0,1-24.08-.63c-12.75-3.87-20.7-6-21-4.94a1,1,0,0,0,.57,1.37s2.89,75.6.42,86.11S71.78,386.13,71.76,395s.81,44.29,2.62,54.54,1.51,8.78,1.2,11.49.61,4.68,1.21,5.13,2.57,4.19,10.86,1.18a166.63,166.63,0,0,0,15.54-6.64,62,62,0,0,0,.45-9.5c0-7.09-3.65-12.34-3.54-17.77s-.61-29.88,4.26-46.83c3.72-13,9.39-46.65,12.62-66.51l6.34-3.84" style="fill:#fff;stroke:#263238;stroke-linecap:round;stroke-linejoin:round"></path><path d="M79.2,405.09a63.83,63.83,0,0,0-.72,10.29c.34,11.32,3.67,35.29,4,36.62s-1.67,5-1,7.33,2.33,7,2.33,7" style="fill:none;stroke:#263238;stroke-linecap:round;stroke-linejoin:round"></path><path d="M86.44,321.6c-.55,20.71-1.59,56.76-2.3,59.83-.59,2.57-2.6,10.08-4,18.13" style="fill:none;stroke:#263238;stroke-linecap:round;stroke-linejoin:round"></path><path d="M86.81,307.19s-.08,3.09-.2,8" style="fill:none;stroke:#263238;stroke-linecap:round;stroke-linejoin:round"></path><path d="M105.57,454.23c-.11,1.77-.11,3-.11,3" style="fill:none;stroke:#fff;stroke-linecap:round;stroke-linejoin:round;stroke-width:0.75px"></path><path d="M103.68,167.1l-20,7.43L86,293.86s31.55,7.76,50.91-2.79l.7-22s-1.26-52.07-3.3-65.46-10-28.3-10-28.3-9.09-5.7-11.84-6.68A51.09,51.09,0,0,0,103.68,167.1Z" style="fill:#263238;stroke:#263238;stroke-linecap:round;stroke-linejoin:round"></path><path d="M141,191.21s2.88,30.17,2.6,44.57-1.25,62.38-1.25,62.38l-6.18,3.37s-.83-45.84-1.72-66.81-13.17-61.8-13.17-61.8l-2.06-5.72s6.22,4.57,12.26,8.18,9.35,12.85,9.35,12.85" style="fill:#82CB62;stroke:#263238;stroke-linecap:round;stroke-linejoin:round"></path><path d="M125.63,180.7s6.89,23.92,9.06,35.53,4.35,31.17,4,41-2.47,44.34-2.47,44.34" style="fill:none;stroke:#263238;stroke-linecap:round;stroke-linejoin:round"></path><polygon points="115.81 173.95 125.9 188.15 120.46 170.66 117.85 163.97 115.81 173.95" style="fill:#fff;stroke:#263238;stroke-linecap:round;stroke-linejoin:round"></polygon><path d="M104.06,142.77s-5.78,23.12-6,24.14,16.71,17.36,16.71,17.36l6.53-20s-10.46-6.58-12.47-12.08S105.05,141.94,104.06,142.77Z" style="fill:#fff;stroke:#263238;stroke-linecap:round;stroke-linejoin:round"></path><path d="M99.24,164.18A188.75,188.75,0,0,1,105.86,204c.9,20.53.16,101.26.16,101.26L69.46,300.2s2.75-50.14,2.78-51.88S62.43,180,62.47,177.78,95.55,163.46,99.24,164.18Z" style="fill:#82CB62;stroke:#263238;stroke-linecap:round;stroke-linejoin:round"></path><line x1="101.51" y1="265.52" x2="102.06" y2="302.15" style="fill:none;stroke:#263238;stroke-linecap:round;stroke-linejoin:round"></line><line x1="100.25" y1="181.78" x2="101.45" y2="261.54" style="fill:none;stroke:#263238;stroke-linecap:round;stroke-linejoin:round"></line><polygon points="98.51 158.3 112.36 174.72 103.9 190.39 92.95 164.53 98.51 158.3" style="fill:#fff;stroke:#263238;stroke-linecap:round;stroke-linejoin:round"></polygon><polygon points="112.36 174.72 114.73 184.27 109.22 180.69 112.36 174.72" style="fill:#fff;stroke:#263238;stroke-linecap:round;stroke-linejoin:round"></polygon><path d="M144.64,125.8s-1.81,7.38-6.55,21.94S128.93,170,123.54,168.4s-17.11-8.67-19.28-12.92-1.48-9.49-1.48-9.49-4.63-.32-4.71-6,3-8.32,5.31-8.61,6.33,2.8,8-1.83-2.07-9.53,1.6-12.18,12.06-2.57,19.36,0a32.37,32.37,0,0,1,12.09,7.77Z" style="fill:#fff;stroke:#263238;stroke-linecap:round;stroke-linejoin:round"></path><path d="M134.88,139.9s.29,8.66-.37,9.77-8.09-1.45-8.09-1.45" style="fill:none;stroke:#263238;stroke-linecap:round;stroke-linejoin:round"></path><path d="M131,154.72a14.22,14.22,0,0,1-7.71-3.1c-3.75-3-4.08-5.17-4.08-5.17" style="fill:none;stroke:#263238;stroke-linecap:round;stroke-linejoin:round"></path><line x1="120.53" y1="145.42" x2="117.7" y2="146.86" style="fill:none;stroke:#263238;stroke-linecap:round;stroke-linejoin:round"></line><path d="M119.49,147.64s-.37,5.3.85,7.46,5-1.77,5-1.77S120.39,149.41,119.49,147.64Z" style="fill:#263238;stroke:#263238;stroke-linecap:round;stroke-linejoin:round"></path><path d="M129.87,138.71c-.38,1.18-1.14,2-1.69,1.81s-.69-1.28-.31-2.46,1.14-2,1.7-1.81S130.26,137.53,129.87,138.71Z" style="fill:#263238"></path><path d="M138.73,141.45c-.38,1.18-1.14,2-1.69,1.81s-.69-1.28-.31-2.46,1.14-2,1.7-1.81S139.12,140.27,138.73,141.45Z" style="fill:#263238"></path><path d="M123.14,130.61s3.26-3.22,8-.05" style="fill:none;stroke:#263238;stroke-linecap:round;stroke-linejoin:round"></path><path d="M136.79,133.14s3.49-1.67,4.54,1.92" style="fill:none;stroke:#263238;stroke-linecap:round;stroke-linejoin:round"></path><path d="M147.85,120.79a19.41,19.41,0,0,0-8.77-8.94c-12.57-6.68-32.06-12.32-37.19,9.64A48.77,48.77,0,0,0,100.82,133a3.32,3.32,0,0,1,3.91.68c1.61,1.86.12,4.18,2.92,4.2s3.39-3.18,3.91-4.78,5.74,1.43,6.7-1.51c1.11-3.42-4-7.86-.24-10.63,2.9-2.14,6.78.86,9.1,2.5,3.81,2.68,7.51,5.35,12,6.81,3.92,1.27,9.63,3,10-2.7A14.3,14.3,0,0,0,147.85,120.79Z" style="fill:#263238;stroke:#263238;stroke-linecap:round;stroke-linejoin:round"></path><path d="M166.14,225.91a48.24,48.24,0,0,1-.93-6.89c.1-1.69,5.67-7.6,5.67-7.6l3.66,4.07Z" style="fill:#fff;stroke:#263238;stroke-linecap:round;stroke-linejoin:round"></path><polygon points="181.23 188.97 165.31 217.33 175.06 218.05 189.61 192.4 181.23 188.97" style="fill:#263238;stroke:#263238;stroke-linecap:round;stroke-linejoin:round"></polygon><path d="M183.26,212.61s3.35-4.45,3.42-5.87a24.14,24.14,0,0,0-1.61-7.24c-.73-1.51-2.23-4.09-3.12-2.49s.47,4.61.5,5.15.28,4,.28,4l-.87,2.23Z" style="fill:#fff;stroke:#263238;stroke-linecap:round;stroke-linejoin:round"></path><path d="M164.83,228a26.57,26.57,0,0,1,.79-2.77c.42-1.13,3.84-5.45,3.84-5.45s-7.84-11.45-6.88-12.23,5.46,3.84,5.46,3.84l3.72,2.5,1.33.95s-1.68-1.79-2.63-2.88-4.67-3.82-5.81-4.84-2.23-1.68-1.2-2.91,1.46-1.09,2.46-.44,1,1.45,4.83,3.22,5,2.43,5.77,3.58,1.81,3.07,1.81,3.07l-.1-5.56s-5.62-5.8-6.2-7-.53-2.47.73-2.51,6.61,4,7.68,4.87,2.86,3.27,2.93,4.26a65,65,0,0,1-.66,8.33c-.27.86-8.88,16.44-8.88,16.44l-3,5.93s-2.16,2.53-4.64-2.57S164.83,228,164.83,228Z" style="fill:#fff;stroke:#263238;stroke-linecap:round;stroke-linejoin:round"></path><path d="M145.9,218.64a17.49,17.49,0,0,0,4.55-1.31c2.38-1.06,5.22.3,3.21,2.56s-1.07,2.15-4.54,3.15S145.9,218.64,145.9,218.64Z" style="fill:#fff;stroke:#263238;stroke-linecap:round;stroke-linejoin:round"></path><path d="M124.86,234.48s4.56,1.36,8.19.73,5.41-4.8,5.41-4.8,1.06,4,3.09,3.89,7.39-5.74,7.39-5.74l.18-5.52a4.44,4.44,0,0,0-3.22-4.4l-5-1.41a58.83,58.83,0,0,1,5.87-4c1.19-.48,6.52,0,8.9-.94s1.41-3.75-3.49-3.86-10.17.2-13.68,2.85a57.66,57.66,0,0,0-7.68,7.79l-7.75,6.57-4.44.67,1.34,8.88Z" style="fill:#fff;stroke:#263238;stroke-linecap:round;stroke-linejoin:round"></path><path d="M137.06,223.94s1.47-1,3.43,1,3.53,7.75,3.53,7.75" style="fill:none;stroke:#263238;stroke-linecap:round;stroke-linejoin:round"></path><path d="M139.9,220.1s4.63.64,5.65,2.42,1.33,7,1.33,7" style="fill:none;stroke:#263238;stroke-linecap:round;stroke-linejoin:round"></path><path d="M66.89,174.78s-10.63,3.05-11.11,6.7-3.23,69.72-3.73,74.19-1,8.11,1.42,10.6,70.56-26,70.56-26l-.92-14.66L78.79,234l2.34-25" style="fill:#82CB62;stroke:#263238;stroke-linecap:round;stroke-linejoin:round"></path><path d="M78.79,234S69.43,236.16,64,244.5" style="fill:none;stroke:#263238;stroke-linecap:round;stroke-linejoin:round"></path></g></svg>