<svg xmlns="http://www.w3.org/2000/svg" viewBox="0 0 500 500"><g id="freepik--background-simple--inject-200"><path d="M473.22,196.68s-11.87-89-75.16-129.55S292.3,46.13,259.61,76,176.54,128.45,134,105.7s-81.1,0-99.88,44.5S86.55,252.06,86.55,278.76,43,351.94,43,387.54s38.56,82.08,110.76,72.2,117.68-65.27,144.38-59.34,61.31,51.42,117.68,24.72S485.09,280.74,473.22,196.68Z" style="fill:#82CB62"></path><path d="M473.22,196.68s-11.87-89-75.16-129.55S292.3,46.13,259.61,76,176.54,128.45,134,105.7s-81.1,0-99.88,44.5S86.55,252.06,86.55,278.76,43,351.94,43,387.54s38.56,82.08,110.76,72.2,117.68-65.27,144.38-59.34,61.31,51.42,117.68,24.72S485.09,280.74,473.22,196.68Z" style="fill:#fff;opacity:0.7000000000000001"></path></g><g id="freepik--Furniture--inject-200"><g style="opacity:0.30000000000000004"><rect x="346.85" y="290.98" width="127.5" height="4.81" transform="translate(821.2 586.77) rotate(180)" style="fill:none;stroke:#000;stroke-linecap:round;stroke-linejoin:round"></rect><rect x="352.77" y="295.93" width="115.67" height="129.82" transform="translate(821.2 721.67) rotate(180)" style="fill:none;stroke:#000;stroke-linecap:round;stroke-linejoin:round"></rect><rect x="356.93" y="301.97" width="107.48" height="28.17" transform="translate(821.33 632.1) rotate(180)" style="fill:none;stroke:#000;stroke-linecap:round;stroke-linejoin:round"></rect><rect x="405.48" y="313.45" width="10.75" height="5.19" transform="translate(821.71 632.1) rotate(180)" style="fill:#263238;stroke:#000;stroke-linecap:round;stroke-linejoin:round"></rect><rect x="356.93" y="337.55" width="107.48" height="28.17" transform="translate(821.33 703.26) rotate(180)" style="fill:none;stroke:#000;stroke-linecap:round;stroke-linejoin:round"></rect><rect x="405.48" y="349.03" width="10.75" height="5.19" transform="translate(821.71 703.26) rotate(180)" style="fill:#263238;stroke:#000;stroke-linecap:round;stroke-linejoin:round"></rect><rect x="356.93" y="373.29" width="107.48" height="28.17" transform="translate(821.33 774.75) rotate(180)" style="fill:none;stroke:#000;stroke-linecap:round;stroke-linejoin:round"></rect><rect x="405.48" y="384.78" width="10.75" height="5.19" transform="translate(821.71 774.75) rotate(180)" style="fill:#263238;stroke:#000;stroke-linecap:round;stroke-linejoin:round"></rect></g></g><g id="freepik--Picture--inject-200"><path d="M124.82,240H36.39V99.27H145.88V240H130.57m11.34-135.67H40.36V234.94H141.91ZM141.52,175c-13.13-22.14-52.09-14.76-75.06-30.35a48.85,48.85,0,0,1-5.75-4.55M47.18,104.91a42.43,42.43,0,0,0,10.66,32.32m0,97.7c0-17.64,39.78-42.25,31.17-56.19-7.42-12-21.93-7.82-33.14-1.91m-3.09,1.73a97.66,97.66,0,0,0-12.17,8.38m52.91-82s14.77,23,48.4,16.81m-45.45,1.06A13.55,13.55,0,1,0,98,129.11a12.56,12.56,0,0,0-.1-1.64M125.32,141a6.36,6.36,0,1,0,6.35,6.36A6.36,6.36,0,0,0,125.32,141Zm16.24,54.19a26.16,26.16,0,0,0-9.8-4.94m-5.13-.81c-.5,0-1,0-1.52,0A26.25,26.25,0,0,0,107.39,235" style="fill:none;stroke:#000;stroke-miterlimit:10;opacity:0.30000000000000004"></path></g><g id="freepik--Window--inject-200"><path d="M270.61,176.27H215.23v-92h55.38Zm64.28-92H279.51v92h55.38ZM270.61,188.13H215.23v92h55.38Zm64.28,0H279.51v92h55.38Zm64-103.83H343.54v92h55.38Zm64.28,0H407.82v92H463.2ZM398.92,188.13H343.54v92h55.38Zm64.28,0H407.82v92H463.2Z" style="fill:none;stroke:#000;stroke-miterlimit:10;opacity:0.30000000000000004"></path></g><g id="freepik--Plants--inject-200"><g style="opacity:0.30000000000000004"><path d="M39.87,313.08c2.25,1,7.75.86,7.76.86s-1.19-3.6-1.29-3.82c-1.21-2.53-5-6.7-8.14-6.28a3.71,3.71,0,0,0-3,4.65C35.74,310.65,38,312.25,39.87,313.08Z" style="fill:none;stroke:#000;stroke-linecap:round;stroke-linejoin:round"></path><path d="M95.54,314.29s1-3.65,1-3.89c.38-2.78-.5-8.36-3.32-9.73a3.71,3.71,0,0,0-5.05,2.24c-.76,2.08.2,4.63,1.34,6.39C90.88,311.36,95.54,314.29,95.54,314.29Z" style="fill:none;stroke:#000;stroke-linecap:round;stroke-linejoin:round"></path><path d="M112,294.35c-3.11-.34-6.82,3.93-8,6.49-.1.22-1.24,3.86-1.18,3.86h.06c-.59.67-1.21,1.39-1.88,2.2-1.22,1.5-2.58,3.2-3.94,5.16A64.8,64.8,0,0,0,93,318.57a48.16,48.16,0,0,0-3.49,7.86l0,.1c0-.92,0-3.49,0-3.68-.36-2.78-2.69-7.93-5.77-8.5a3.7,3.7,0,0,0-4.28,3.49c-.18,2.2,1.41,4.41,3,5.8,1.76,1.58,6.65,3.1,7,3.22a65.43,65.43,0,0,0-2.07,8.52c-.3,1.67-.55,3.37-.77,5.08,0-.79,0-1.5,0-1.6-.36-2.78-2.68-7.94-5.77-8.51a3.71,3.71,0,0,0-4.28,3.49c-.18,2.21,1.42,4.42,3,5.81s5.72,2.8,6.82,3.15c-.08.65-.17,1.31-.25,2-.37,3.15-.73,6.29-1.18,9.36-.16,1.09-.36,2.15-.55,3.21,0-.71,0-1.3,0-1.39-.36-2.78-2.69-7.93-5.78-8.5a3.71,3.71,0,0,0-4.28,3.49c-.18,2.2,1.42,4.41,3,5.81s5.32,2.65,6.63,3.08c-.23,1.08-.46,2.16-.73,3.2-.2.7-.35,1.39-.59,2.09l-.66,2.06c-.47,1.3-1,2.64-1.44,3.89-.34.87-.67,1.7-1,2.53.17-1.08.46-3.19.46-3.37a14.39,14.39,0,0,0-1.93-7,4.52,4.52,0,0,0-.05-.82,3.72,3.72,0,0,0-4.54-3.15c-3,.81-5,6.13-5.1,8.93,0,.16.1,2,.19,3.09-.15-.65-.29-1.3-.46-2-.32-1.34-.67-2.67-1-4.1l-.63-2.08c-.19-.69-.49-1.4-.73-2.12-.6-1.63-1.29-3.27-2-4.89,1.17-.28,5.32-1.34,7-2.62s3.42-3.36,3.4-5.57a3.71,3.71,0,0,0-4-3.8c-3.12.34-5.82,5.3-6.39,8.05,0,.17-.22,2.18-.3,3.29-.44-1-.88-1.95-1.37-2.92-1.39-2.81-2.89-5.61-4.37-8.41-.45-.85-.9-1.71-1.34-2.57.42-.09,5.38-1.25,7.24-2.68,1.66-1.27,3.42-3.35,3.41-5.57a3.71,3.71,0,0,0-4-3.8c-3.12.34-5.82,5.31-6.39,8.05,0,.21-.3,3.1-.33,3.84-1-1.89-2-3.78-2.82-5.68a67,67,0,0,1-3.06-7.91c.2,0,5.38-1.22,7.29-2.69,1.66-1.27,3.42-3.35,3.41-5.57a3.72,3.72,0,0,0-4-3.8c-3.12.34-5.83,5.31-6.39,8.05,0,.18-.24,2.39-.31,3.44l-.18,0a48.09,48.09,0,0,1-1.6-8.37c-.17-1.56-.25-3.06-.3-4.52,1-.12,5.5-.72,7.37-1.85s3.77-3,4-5.16a3.7,3.7,0,0,0-3.56-4.22c-3.14,0-6.37,4.63-7.24,7.3,0,.14-.36,1.67-.57,2.78,0-.66,0-1.34,0-2,0-2.37.15-4.54.3-6.46.09-1.1.2-2.08.31-3,.91-.63,4.53-3.19,5.65-5s2-4.36,1.16-6.42a3.7,3.7,0,0,0-5.1-2.1c-2.79,1.44-3.52,7.05-3.06,9.81,0,.24,1.09,3.9,1.14,3.87l.05,0c-.12.89-.24,1.84-.35,2.88-.19,1.92-.39,4.09-.45,6.47a65.4,65.4,0,0,0,.19,7.69,48.09,48.09,0,0,0,1.42,8.49l0,.1c-.49-.78-1.94-2.9-2.07-3.05-1.84-2.12-6.62-5.13-9.51-3.91a3.71,3.71,0,0,0-1.64,5.28c1.06,1.94,3.62,2.9,5.69,3.2,2.33.34,7.24-1.09,7.63-1.2a66.89,66.89,0,0,0,3,8.24c.68,1.57,1.41,3.12,2.16,4.67-.45-.65-.85-1.24-.92-1.31-1.83-2.12-6.62-5.14-9.5-3.91a3.71,3.71,0,0,0-1.65,5.27c1.07,1.94,3.62,2.9,5.69,3.2s6.31-.82,7.42-1.14l.88,1.78c1.43,2.83,2.86,5.65,4.18,8.46.46,1,.88,2,1.31,3-.4-.58-.74-1.07-.8-1.13-1.83-2.12-6.62-5.14-9.5-3.91A3.71,3.71,0,0,0,50,356.29c1.07,1.94,3.62,2.9,5.69,3.2s5.9-.71,7.23-1.08c.4,1,.81,2.06,1.16,3.07.22.7.48,1.35.66,2.07s.39,1.4.58,2.08c.32,1.34.66,2.72,1,4,.2.91.37,1.79.55,2.67-.45-1-1.37-2.91-1.47-3.07-1.49-2.37-5.76-6.07-8.8-5.3a3.72,3.72,0,0,0-2.43,5c.76,2.08,3.14,3.42,5.14,4,2.2.67,7.08.06,7.69,0,.29,1.45.56,2.87.79,4.22.52,2.94.92,5.59,1.22,7.82H56.6l4.87,40.71H84.21L89.08,385H76.52c.82-1.8,1.71-3.86,2.64-6.14.58-1.39,1.16-2.9,1.75-4.44.59.12,5.42,1.1,7.66.59,2.05-.46,4.52-1.61,5.43-3.63a3.72,3.72,0,0,0-2-5.13c-3-1-7.51,2.38-9.17,4.63-.1.13-1,1.69-1.56,2.69.24-.63.48-1.25.71-1.9.48-1.3.91-2.6,1.39-4,.2-.69.41-1.38.62-2.08s.37-1.44.56-2.17c.4-1.7.73-3.44,1-5.2,1.13.42,5.18,1.82,7.27,1.68s4.71-.92,5.91-2.77a3.71,3.71,0,0,0-1.24-5.38c-2.79-1.44-7.79,1.21-9.77,3.18-.13.13-1.39,1.71-2.07,2.59.17-1.06.34-2.12.47-3.2.39-3.11.68-6.27,1-9.42.09-1,.2-1.92.3-2.88.4.15,5.17,1.92,7.52,1.76,2.09-.15,4.7-.91,5.91-2.77a3.71,3.71,0,0,0-1.24-5.38c-2.79-1.44-7.79,1.21-9.77,3.19-.15.15-2,2.42-2.4,3,.22-2.12.46-4.23.79-6.3a65.64,65.64,0,0,1,1.8-8.28c.19.07,5.17,1.95,7.57,1.78,2.09-.15,4.7-.91,5.91-2.77a3.71,3.71,0,0,0-1.25-5.38c-2.78-1.44-7.78,1.21-9.76,3.19-.13.13-1.52,1.86-2.16,2.7l-.16-.09a47.64,47.64,0,0,1,3.29-7.86c.71-1.39,1.47-2.69,2.24-3.93.89.44,5,2.43,7.16,2.52s4.78-.39,6.18-2.1a3.71,3.71,0,0,0-.65-5.49c-2.61-1.73-7.87.35-10,2.1-.12.09-1.23,1.19-2,2,.35-.55.71-1.13,1.06-1.66,1.31-2,2.64-3.7,3.82-5.22.68-.86,1.31-1.63,1.91-2.34,1.1,0,5.54-.15,7.48-1.06s4.06-2.55,4.52-4.71A3.72,3.72,0,0,0,112,294.35ZM77.45,378.12c-1.13,2.6-2.2,4.9-3.15,6.86H71c-.36-2.31-.82-5.07-1.44-8.16-.29-1.48-.63-3.06-1-4.68a39.14,39.14,0,0,0,4.28-2c1.61,1.74,5.72,3.77,6.25,4C78.55,375.54,78,376.87,77.45,378.12Z" style="fill:none;stroke:#000;stroke-linecap:round;stroke-linejoin:round"></path></g></g><g id="freepik--Floor--inject-200"><line x1="41.79" y1="425.74" x2="31.11" y2="425.74" style="fill:none;stroke:#263238;stroke-linecap:round;stroke-linejoin:round"></line><line x1="487" y1="425.74" x2="51.1" y2="425.74" style="fill:none;stroke:#263238;stroke-linecap:round;stroke-linejoin:round"></line></g><g id="freepik--Device--inject-200"><polygon points="82.11 465.53 8 460.35 152.44 433.99 254.41 433.99 82.11 465.53" style="opacity:0.2"></polygon><path d="M248.91,79.6l-148.26-29V49.41H92.81a8.2,8.2,0,0,0-9.41,8.11V455.64c0,5,4.61,9.37,9.69,9.63l4.92.54,2.64-.15,148.26-30.19a8.2,8.2,0,0,0,7-8.11V87.71A8.2,8.2,0,0,0,248.91,79.6Z" style="fill:#263238;stroke:#263238;stroke-miterlimit:10"></path><path d="M256.75,435.47l-156.1,30.19a8.21,8.21,0,0,1-9.42-8.11v-400a8.21,8.21,0,0,1,9.42-8.11L256.75,79.6a8.2,8.2,0,0,1,7,8.11V427.36A8.2,8.2,0,0,1,256.75,435.47Z" style="fill:#fff;stroke:#263238;stroke-miterlimit:10"></path><polygon points="255.99 400.13 102.49 423.51 102.49 74.56 255.99 97.93 255.99 400.13" style="fill:#263238"></polygon><path d="M256,400.14,102.49,423.51v-86c21.55-2.06,52.61-12.59,82.43-50.18C229.28,231.41,206.81,143.12,256,135ZM131.77,134.76c-11.5-1.17-21,8.17-21,20.89s9.5,23.62,21,24.33C143,180.67,152,171.29,152,159S143,135.92,131.77,134.76ZM104.66,74.89c4.45,13.93,15.43,35.31,41.52,44.61C180.13,131.61,196,103,219.69,92.41Z" style="fill:#82CB62;stroke:#263238;stroke-miterlimit:10"></path><path d="M256,400.14,102.49,423.51v-86c21.55-2.06,52.61-12.59,82.43-50.18C229.28,231.41,206.81,143.12,256,135ZM131.77,134.76c-11.5-1.17-21,8.17-21,20.89s9.5,23.62,21,24.33C143,180.67,152,171.29,152,159S143,135.92,131.77,134.76ZM104.66,74.89c4.45,13.93,15.43,35.31,41.52,44.61C180.13,131.61,196,103,219.69,92.41Z" style="opacity:0.30000000000000004"></path><path d="M247.93,318c0,11.19-7.46,20.92-16.82,21.75-9.53.85-17.39-7.82-17.39-19.39s7.86-21.33,17.39-21.8C240.47,298.08,247.93,306.78,247.93,318Z" style="fill:#263238;stroke:#263238;stroke-miterlimit:10"></path><polygon points="255.99 400.13 102.49 423.51 102.49 74.56 255.99 97.93 255.99 400.13" style="fill:none;stroke:#263238;stroke-miterlimit:10"></polygon><path d="M182.25,240.79l-19.92-.15a4.62,4.62,0,0,1-4.63-4.55V212.92a4.39,4.39,0,0,1,4.63-4.35l19.92.71a4.61,4.61,0,0,1,4.43,4.57v22.57A4.37,4.37,0,0,1,182.25,240.79Z" style="fill:#999;stroke:#263238;stroke-miterlimit:10;fill-rule:evenodd"></path><polygon points="181.52 224.56 165.33 213.86 165.33 234.54 181.52 224.56" style="fill:#fff;fill-rule:evenodd"></polygon><line x1="161.25" y1="251.27" x2="181.88" y2="251.23" style="fill:none;stroke:#d4d4d4;stroke-miterlimit:10"></line><path d="M217.39,241.05l-18.67-.14a4.39,4.39,0,0,1-4.33-4.4V214.09a4.18,4.18,0,0,1,4.33-4.22l18.67.68a4.39,4.39,0,0,1,4.15,4.41v21.86A4.16,4.16,0,0,1,217.39,241.05Z" style="fill:#999;stroke:#263238;stroke-miterlimit:10;fill-rule:evenodd"></path><path d="M219.78,217.56a4.32,4.32,0,0,0-3.85-4.52,3.67,3.67,0,0,0-3.34,2.07,4,4,0,0,0-3.36-2.3,4.06,4.06,0,0,0-3.92,4.33,5,5,0,0,0,.51,2.2c.19.53,1.21,2.54,6.61,7,0,0,.06.11.09.08s.1-.07.1-.07a45,45,0,0,0,4.38-3.8C218.28,221.27,219.78,219.69,219.78,217.56Z" style="fill:#fff;fill-rule:evenodd"></path><path d="M196.25,232a6,6,0,0,0,4.3-.85c1.83-1.34.81-4.8,3.25-4.52,3,.34,1.51,6.89,2.95,9a1.61,1.61,0,0,0,1.93.75c.77-.39,1-1.63,1.08-2.47a23.22,23.22,0,0,1,.37-2.78c.5-2,2-.8,2.91.24a2.93,2.93,0,0,0,2.17,1l5.16.08" style="fill:none;stroke:#fff;stroke-miterlimit:10;fill-rule:evenodd"></path><line x1="197.65" y1="251.2" x2="216.98" y2="251.16" style="fill:none;stroke:#d4d4d4;stroke-miterlimit:10"></line><path d="M250.74,241.3l-17.51-.13a4.18,4.18,0,0,1-4.06-4.26v-21.7a4,4,0,0,1,4.06-4.1l17.51.63a4.21,4.21,0,0,1,3.9,4.28V237.2A4,4,0,0,1,250.74,241.3Z" style="fill:#999;stroke:#263238;stroke-miterlimit:10;fill-rule:evenodd"></path><path d="M242.44,220.63v-2.11a1.59,1.59,0,0,0-1.39-1.68l-8.41-.26v18.66l19.18.25V220.88Z" style="fill:none;stroke:#fff;stroke-miterlimit:10;fill-rule:evenodd"></path><line x1="234.16" y1="222.35" x2="251.25" y2="222.78" style="fill:none;stroke:#fff;stroke-miterlimit:10"></line><line x1="232.92" y1="251.13" x2="251.04" y2="251.09" style="fill:none;stroke:#d4d4d4;stroke-miterlimit:10"></line><path d="M281.37,241.53l-16.49-.12a4,4,0,0,1-3.82-4.14V216.22a3.81,3.81,0,0,1,3.82-4l16.49.59A4,4,0,0,1,285,217v20.56A3.81,3.81,0,0,1,281.37,241.53Z" style="fill:#999;stroke:#263238;stroke-miterlimit:10;fill-rule:evenodd"></path><path d="M281.39,220.83l-16.29-.46a.73.73,0,0,0-.68.8v11.41a.76.76,0,0,0,.68.82l16.29.25a.72.72,0,0,0,.66-.79V221.65A.76.76,0,0,0,281.39,220.83Zm.22,2.43L276.47,227l4.58,4.2a.84.84,0,0,1,.13,1,.56.56,0,0,1-.48.28.53.53,0,0,1-.36-.15l-5-4.55-1.86,1.35-2.19-1.51-5.15,4.48a.59.59,0,0,1-.37.14.62.62,0,0,1-.49-.31.83.83,0,0,1,.13-1l4.72-4.09-5.36-3.7a.82.82,0,0,1-.24-1,.57.57,0,0,1,.84-.27l8.08,5.59L281,222a.55.55,0,0,1,.82.26A.8.8,0,0,1,281.61,223.26Z" style="fill:#fff;fill-rule:evenodd"></path><line x1="264.6" y1="251.07" x2="281.65" y2="251.03" style="fill:none;stroke:#d4d4d4;stroke-miterlimit:10"></line><path d="M180.38,335.73a1.44,1.44,0,0,0-1.47-1.55,1.74,1.74,0,0,0-1.46,1.79,1.43,1.43,0,0,0,1.46,1.55A1.75,1.75,0,0,0,180.38,335.73Z" style="fill:#d4d4d4;fill-rule:evenodd"></path><path d="M189.27,335a2.33,2.33,0,0,0-2.37-2.53,2.83,2.83,0,0,0-2.38,2.92,2.33,2.33,0,0,0,2.38,2.53A2.83,2.83,0,0,0,189.27,335Z" style="fill:#fff;fill-rule:evenodd"></path><path d="M196.19,334.46a1.4,1.4,0,0,0-1.42-1.53,1.7,1.7,0,0,0-1.42,1.76,1.41,1.41,0,0,0,1.42,1.53A1.71,1.71,0,0,0,196.19,334.46Z" style="fill:#d4d4d4;fill-rule:evenodd"></path><path d="M203.93,333.83a1.39,1.39,0,0,0-1.4-1.52,1.69,1.69,0,0,0-1.41,1.75,1.4,1.4,0,0,0,1.41,1.52A1.7,1.7,0,0,0,203.93,333.83Z" style="fill:#d4d4d4;fill-rule:evenodd"></path><path d="M182.61,356.26a4.26,4.26,0,0,1,1.38,3.22V381a5.27,5.27,0,0,1-4.41,5.15L161.5,388.5c-.2,0-.4,0-.59,0a4.08,4.08,0,0,1-2.7-1,4.26,4.26,0,0,1-1.4-3.24V362.25a5.26,5.26,0,0,1,4.59-5.16l18.08-1.83A4,4,0,0,1,182.61,356.26Zm-41.39,2.87-19.43,2a5.54,5.54,0,0,0-4.9,5.36v22.87a4.27,4.27,0,0,0,4.34,4.36,4.89,4.89,0,0,0,.66-.05l19.43-2.52a5.54,5.54,0,0,0,4.7-5.34V363.48a4.35,4.35,0,0,0-1.41-3.28A4.29,4.29,0,0,0,141.22,359.13Zm73.71-3.95a10.47,10.47,0,0,0-8.17-2.71c-7.07.71-12.83,8.13-12.83,16.52a14.58,14.58,0,0,0,4.57,11.08,10.5,10.5,0,0,0,7,2.67,10.81,10.81,0,0,0,1.39-.09c6.91-.9,12.53-8.3,12.53-16.49A14.67,14.67,0,0,0,214.93,355.18Z" style="fill:#fff;fill-rule:evenodd;opacity:0.1"></path><path d="M240.41,263.68a7.7,7.7,0,0,0-5.45-2.23l-109.64,1.39a10,10,0,0,0-9.92,9.88,9.35,9.35,0,0,0,2.85,6.76A9.64,9.64,0,0,0,125,282.2h.31L235,279c4.43-.13,8-4.14,8-8.94A9,9,0,0,0,240.41,263.68Z" style="fill:#fff;opacity:0.1"></path><path d="M147.17,213.85v22.57a4.8,4.8,0,0,1-4.83,4.81h0l-19.93-.15a5.06,5.06,0,0,1-5.06-5V212.92a4.73,4.73,0,0,1,1.45-3.42,4.89,4.89,0,0,1,3.63-1.37l19.93.72A5.05,5.05,0,0,1,147.17,213.85Zm-25.86,37v.87l20.63,0v-.87Zm56.15-40.73-18.67-.67a4.55,4.55,0,0,0-3.36,1.28,4.62,4.62,0,0,0-1.42,3.37v22.42a4.83,4.83,0,0,0,4.76,4.84l18.68.14h0a4.5,4.5,0,0,0,3.17-1.31,4.72,4.72,0,0,0,1.39-3.36V215A4.84,4.84,0,0,0,177.46,210.11Zm-19.75,40.65v.88l19.33,0v-.87Zm53.11-39.45-17.52-.63a4.21,4.21,0,0,0-3.13,1.2,4.57,4.57,0,0,0-1.38,3.33v21.7a4.63,4.63,0,0,0,4.49,4.7l17.52.13h0a4.19,4.19,0,0,0,2.95-1.23,4.63,4.63,0,0,0,1.35-3.31V216A4.64,4.64,0,0,0,210.82,211.31ZM193,250.69v.88l18.11,0v-.87Zm48.47-38.28L225,211.82A4,4,0,0,0,222,213a4.55,4.55,0,0,0-1.36,3.27v21.05a4.45,4.45,0,0,0,4.26,4.57l16.49.13h0a3.88,3.88,0,0,0,2.75-1.16,4.64,4.64,0,0,0,1.33-3.26V217A4.47,4.47,0,0,0,241.45,212.41Zm-16.79,38.22v.87l17.05,0v-.87Z" style="fill:#fff;opacity:0.1"></path><path d="M180.86,120.79v1c0,4-1.67,7-4.74,7.91,3.22,1.46,4.74,4.77,4.74,8.79v3.14c0,5.93-2.23,10.09-7.71,9.59s-7.83-5.14-7.83-11.16v-2.36l2.29.24v2.47c0,4.48,1.51,8,5.48,8.35s5.43-2.76,5.43-7.43v-3.14c0-4.26-1.83-6.91-5.32-7.47l-2.43-.26V128l2.53.28c3.23.13,5.22-2.32,5.22-6.23v-1.46c0-4.66-1.48-8.11-5.43-8.62s-5.48,2.6-5.48,7.08v1.65l-2.29-.28v-1.47c0-6,2.29-10.15,7.83-9.43S180.86,114.86,180.86,120.79Zm6.56,7.79c1.2-2.06,3.05-2.77,5.63-2.47,4.79.56,6.7,5,6.7,10.55v6.86c0,5.77-2.21,9.91-7.49,9.43s-7.56-5.09-7.56-10.95v-2.2l2.22.23v2.31c0,4.34,1.5,7.78,5.29,8.13s5.28-2.77,5.28-7.07v-6.75c0-4.3-1.47-7.73-5.28-8.16-2.54-.29-4.29,1.13-5,4v.7l-2.16-.24.9-21.55L199,113.14v2.46l-11-1.39Zm17.31-9.24-.32,0a3.65,3.65,0,0,1-2.89-3.69,3.25,3.25,0,0,1,1-2.45,2.46,2.46,0,0,1,2-.6,3.66,3.66,0,0,1,2.88,3.69,3.24,3.24,0,0,1-1,2.44A2.51,2.51,0,0,1,204.73,119.34Zm-.54-5.91a1.57,1.57,0,0,0-1.07.41,2.36,2.36,0,0,0-.73,1.79,2.78,2.78,0,0,0,2.13,2.83,1.6,1.6,0,0,0,1.29-.4,2.37,2.37,0,0,0,.72-1.79,2.78,2.78,0,0,0-2.12-2.83Zm-35.93,67.7a.44.44,0,0,0,.21-.58,10.47,10.47,0,0,1-1-4.48,9,9,0,0,1,2.72-6.66,6.82,6.82,0,0,1,5.21-1.85,6.4,6.4,0,0,1,1,.16.5.5,0,0,0,.34-.06.47.47,0,0,0,.19-.29,9.09,9.09,0,0,1,1-2.84.43.43,0,0,0-.17-.59.44.44,0,0,0-.59.18,9.63,9.63,0,0,0-1,2.66l-.73-.09a7.66,7.66,0,0,0-5.87,2.08,9.91,9.91,0,0,0-3,7.3,11.49,11.49,0,0,0,1.08,4.86.44.44,0,0,0,.39.25A.41.41,0,0,0,168.26,181.13Zm28.23-6.71a.45.45,0,0,0,0-.62,6.76,6.76,0,0,0-3.4-1.73,10.16,10.16,0,0,0,.14-1.75c0-5.38-3.82-10.08-8.53-10.47a7.58,7.58,0,0,0-6.8,3.18.42.42,0,0,0,.08.6.43.43,0,0,0,.61-.08,6.73,6.73,0,0,1,6-2.83c4.26.35,7.73,4.66,7.73,9.6a10.69,10.69,0,0,1-.2,2,.41.41,0,0,0,.07.34.46.46,0,0,0,.31.18,5.63,5.63,0,0,1,3.35,1.56.44.44,0,0,0,.3.12A.45.45,0,0,0,196.49,174.42Zm-2.21,13c2.88-.78,4.9-3.73,4.9-7.18a9,9,0,0,0-1.31-4.68.44.44,0,1,0-.74.46,8,8,0,0,1,1.17,4.22c0,3-1.71,5.61-4.18,6.32l-20.63-1.21a8.81,8.81,0,0,1-4.28-3.43.42.42,0,0,0-.6-.12.43.43,0,0,0-.12.6,9.58,9.58,0,0,0,4.77,3.79l.11,0,20.77,1.22h.14Z" style="fill:#fff;opacity:0.1"></path><path d="M277.14,278.56,167.5,281.77a9.1,9.1,0,0,1-9.49-9h0a9.57,9.57,0,0,1,9.49-9.45l109.64-1.39c4.21-.05,7.6,3.61,7.6,8.18h0C284.74,274.64,281.35,278.44,277.14,278.56Z" style="fill:#d4d4d4;stroke:#263238;stroke-miterlimit:10;fill-rule:evenodd"></path><path d="M276.5,271.69h0a1.16,1.16,0,0,1-1.06-1.26v-4.07a1.22,1.22,0,0,1,1.06-1.31h0a1.18,1.18,0,0,1,1.06,1.27v4.06A1.22,1.22,0,0,1,276.5,271.69Z" style="fill:#263238"></path><path d="M276.51,272.61a2,2,0,0,1-1.88-2.23v-1.91a.22.22,0,0,1,.19-.24.22.22,0,0,1,.2.23v1.91a1.62,1.62,0,0,0,1.49,1.77,1.72,1.72,0,0,0,1.48-1.83v-1.9a.22.22,0,0,1,.19-.24.22.22,0,0,1,.2.23v1.9A2.16,2.16,0,0,1,276.51,272.61Z" style="fill:#263238"></path><path d="M276.51,275.05a.21.21,0,0,1-.2-.23v-2.44a.22.22,0,0,1,.2-.24.21.21,0,0,1,.19.23v2.44A.22.22,0,0,1,276.51,275.05Z" style="fill:#263238"></path><path d="M277.8,275.14l-2.59.07A.21.21,0,0,1,275,275a.22.22,0,0,1,.19-.24l2.59-.06c.1,0,.19.1.19.23A.22.22,0,0,1,277.8,275.14Z" style="fill:#263238"></path><path d="M170.44,272a3,3,0,0,0-2.88-3.1,3.1,3.1,0,0,0-2.89,3.22,3,3,0,0,0,2.89,3.09A3.11,3.11,0,0,0,170.44,272Z" style="fill:#fff"></path><path d="M193,401.15c0-2-1.37-3.35-3.07-3.11a4,4,0,0,0-3.1,4c0,2,1.39,3.36,3.1,3.11A4,4,0,0,0,193,401.15Z" style="fill:none;stroke:#fff;stroke-linecap:round;stroke-linejoin:round"></path><polygon points="156.59 405.58 163.47 409.03 163.47 400.16 156.59 405.58" style="fill:none;stroke:#fff;stroke-linecap:round;stroke-linejoin:round"></polygon><polygon points="220.96 400.59 215.43 401.4 215.43 394.85 220.96 394.07 220.96 400.59" style="fill:none;stroke:#fff;stroke-linecap:round;stroke-linejoin:round"></polygon><path d="M220.11,120.79v1c0,4-1.68,7-4.74,7.91,3.22,1.46,4.74,4.77,4.74,8.79v3.14c0,5.93-2.24,10.09-7.72,9.59s-7.83-5.14-7.83-11.16v-2.36l2.3.24v2.47c0,4.48,1.5,8,5.48,8.35s5.43-2.76,5.43-7.43v-3.14c0-4.26-1.84-6.91-5.32-7.47l-2.43-.26V128l2.53.28c3.23.13,5.22-2.32,5.22-6.23v-1.46c0-4.66-1.48-8.11-5.43-8.62s-5.48,2.6-5.48,7.08v1.65l-2.3-.28v-1.47c0-6,2.3-10.15,7.83-9.43S220.11,114.86,220.11,120.79Z" style="fill:#fff"></path><path d="M226.66,128.58c1.21-2.06,3.05-2.77,5.64-2.47,4.79.56,6.7,5,6.7,10.55v6.86c0,5.77-2.21,9.91-7.5,9.43S224,147.86,224,142v-2.2l2.21.23v2.31c0,4.34,1.51,7.78,5.29,8.13s5.29-2.77,5.29-7.07v-6.75c0-4.3-1.47-7.73-5.29-8.16-2.53-.29-4.28,1.13-5,4v.7L224.3,133l.91-21.55,13.06,1.69v2.46l-11-1.39Z" style="fill:#fff"></path><path d="M246.22,116.27a2.37,2.37,0,0,1-2.5,2.62,3.21,3.21,0,0,1-2.52-3.26,2.37,2.37,0,0,1,2.52-2.62A3.22,3.22,0,0,1,246.22,116.27Z" style="fill:none;stroke:#fff;stroke-miterlimit:10;fill-rule:evenodd"></path><path d="M216.81,164.33a9.18,9.18,0,0,0-1,3,8,8,0,0,0-1.11-.17c-4.62-.35-8.4,3.65-8.4,8.95a11,11,0,0,0,1,4.67" style="fill:none;stroke:#fff;stroke-linecap:round;stroke-linejoin:round"></path><path d="M235.42,174.12a6.25,6.25,0,0,0-3.61-1.68,10.36,10.36,0,0,0,.22-2.12c0-5.17-3.63-9.66-8.14-10a7.2,7.2,0,0,0-6.42,3" style="fill:none;stroke:#fff;stroke-linecap:round;stroke-linejoin:round"></path><path d="M208.1,182.12a9.17,9.17,0,0,0,4.55,3.62L233.41,187c2.65-.72,4.58-3.42,4.58-6.76a8.52,8.52,0,0,0-1.24-4.45" style="fill:none;stroke:#fff;stroke-linecap:round;stroke-linejoin:round"></path><path d="M219.91,385.72l-18.09,2.35a3.66,3.66,0,0,1-4.19-3.77V362.25a4.81,4.81,0,0,1,4.19-4.73l18.09-1.83a3.64,3.64,0,0,1,4,3.79V381A4.83,4.83,0,0,1,219.91,385.72Z" style="fill:#999;stroke:#263238;stroke-miterlimit:10;fill-rule:evenodd"></path><path d="M210.88,361.76a9.7,9.7,0,0,0-8.58,9.34,7.27,7.27,0,0,0,3.51,6.35l-.39,4,3.5-2.92a8,8,0,0,0,2,0,9.7,9.7,0,0,0,8.43-9.32A7.37,7.37,0,0,0,210.88,361.76Z" style="fill:#fff;fill-rule:evenodd"></path><path d="M181.65,390.68l-19.44,2.52a3.86,3.86,0,0,1-4.51-3.88V366.45a5.08,5.08,0,0,1,4.51-4.92l19.44-2a3.85,3.85,0,0,1,4.32,3.92v22.29A5.09,5.09,0,0,1,181.65,390.68Z" style="fill:#999;stroke:#263238;stroke-miterlimit:10;fill-rule:evenodd"></path><path d="M176.45,370.86c0,3.55-2,6.66-4.44,6.94s-4.47-2.37-4.47-5.95,2-6.68,4.47-6.94S176.45,367.32,176.45,370.86Z" style="fill:#fff;fill-rule:evenodd"></path><path d="M171.56,388.16a13.06,13.06,0,0,0,8.66-5.27,9,9,0,0,0-8.18-3.11,11.92,11.92,0,0,0-8.72,5.78A10.11,10.11,0,0,0,171.56,388.16Z" style="fill:#fff;fill-rule:evenodd"></path><path d="M259.33,366.16c0-8-5.4-13.94-12.14-13.26s-12.45,7.9-12.45,16.09,5.61,14.11,12.45,13.22S259.33,374.15,259.33,366.16Z" style="fill:#999;stroke:#263238;stroke-miterlimit:10;fill-rule:evenodd"></path><path d="M251.56,367.05c0-2.88-1.95-5-4.37-4.73s-4.42,2.84-4.42,5.75,2,5,4.42,4.72S251.56,369.93,251.56,367.05Z" style="fill:#fff;fill-rule:evenodd"></path></g><g id="freepik--Character--inject-200"><ellipse cx="344.1" cy="456.53" rx="49.94" ry="11.37" style="opacity:0.2"></ellipse><path d="M338,438.5a26.79,26.79,0,0,1-7.19,8.4c-4.8,3.59-6,6.59-6,9.19s3,4.6,7,4.6,8.59-.8,11-3.6,2.59-4.2,5.79-7,5-1,5-6.59-14-5.39-14-5.39Z" style="fill:#fff;stroke:#263238;stroke-miterlimit:10"></path><path d="M343.05,452.34c-1.69,3.13-4.58,6.75-11.09,6-4-.44-6.07-2.24-7.09-3.56a8,8,0,0,0-.11,1.28c0,2.6,3,4.6,7,4.6s8.59-.8,11-3.6,2.59-4.2,5.79-7,5-1,5-6.59a1.1,1.1,0,0,0,0-.18,42.22,42.22,0,0,1-3.48,2.51C345.94,448.48,344.74,449.2,343.05,452.34Z" style="fill:#263238;stroke:#263238;stroke-miterlimit:10"></path><path d="M365.53,443.3l.11.75a86.71,86.71,0,0,1,1.09,9.84c0,3.2-1,8,4.19,11s10.19.8,12.59-.8,4.2-4.19,2.8-7.59-4.6-13.39-4.6-14.79S367.13,441.9,365.53,443.3Z" style="fill:#fff;stroke:#263238;stroke-miterlimit:10"></path><path d="M384.71,452.08q.06,1.11.06,2.19c0,4.58,1.69,7.23-5.31,8.68s-9.88-1-11.09-3.86a44.74,44.74,0,0,1-1.65-5.26s0,0,0,.06c0,3.2-1,8,4.19,11s10.19.8,12.59-.8,4.2-4.19,2.8-7.59C385.89,455.47,385.31,453.87,384.71,452.08Z" style="fill:#263238;stroke:#263238;stroke-miterlimit:10"></path><path d="M326.69,304.29s-2.66,28.51-.53,43.43a272.39,272.39,0,0,0,5.6,28s.53,19.45,3.46,30.38,2.13,21.05,2.13,22.91.27,4.8.27,4.8,1.33-.54,6.39,0,12.52,5.59,12.52,5.59,1.6-7.46,1.07-10.12-2.13-5.07-2.13-8,1.06-21,.53-26.11-1.6-14.92-1.6-16.51-1.6-20.79-1.6-24,1.6-17,1.6-17h2.4s.27,19.71,1.33,27.17.8,16.52,1.6,19.18a68,68,0,0,1,1.33,9.33,115.88,115.88,0,0,0,.54,14.65c.8,7.2,1.33,16.52,1.6,17.32s-1.6,2.93-1.6,4.8,3.19,8,3.19,8,6.93-3.2,11.19-3.2a14.7,14.7,0,0,1,6.66,1.33,67.42,67.42,0,0,0,3.2-6.39c.8-2.13-2.13-7.73-2.13-7.73s2.4-19.71,2.4-24-1.33-10.65-1.33-16-1.6-12-1.87-14.39-.27-6.39-.27-7.19,1.34-21.85,1.87-29.31-.8-26.64-.8-26.64v-2.4L327,299Z" style="fill:#263238;stroke:#263238;stroke-miterlimit:10"></path><path d="M378.41,371.46a9.72,9.72,0,0,0-2.64.75c-1.14.57-.57.57-3,.57H368.4a9.82,9.82,0,0,0-3.21.38,11.73,11.73,0,0,1-3.21.38s-1.32.37-1.32-1.33-1.33-.94,0-1.7,2.45-1.32,2.45-1.32a1.59,1.59,0,0,1,1.32-.56,19.73,19.73,0,0,0,2.27-.19l3.59-.76,2.45.95.95.94a2.73,2.73,0,0,0,1.13.19,11.77,11.77,0,0,1,2.65.75Z" style="fill:#878787;stroke:#263238;stroke-miterlimit:10"></path><path d="M351.21,312.55l-.54,6.13s-3.19,2.66-2.39,4.26,4.52,4,4.52,4" style="fill:none;stroke:#949494;stroke-miterlimit:10"></path><path d="M345.61,317.61s13.86,1.34,18.38,0" style="fill:none;stroke:#949494;stroke-miterlimit:10"></path><path d="M374.25,374.86H371.8c-.76,0-2.46.19-2.46.19H365l-1.7.19-1.13.75.38,1.51s1.32-.19,1.88-.19a10.53,10.53,0,0,1,1.89.38s-.38.76.57.95,4,1.32,4,1.32a9.73,9.73,0,0,0,2.45-.95s.19.76,1.32,0,.95-1.13,1.7-1.13.76-.57,1.32-.94,1.14.75,1-1.14-1-2.07-1-2.07Z" style="fill:#878787;stroke:#263238;stroke-miterlimit:10"></path><path d="M345.17,374.67a1.74,1.74,0,0,0-1.13,0,38.12,38.12,0,0,1-5.1.57h-4.53s.94,1.7,1.7,1.7,4.34.18,5.47-.19a19.39,19.39,0,0,1,2.65-.76c.94-.19,2.64-.57,2.64-.57s1.32.19,1.89-.37S346.3,374.67,345.17,374.67Z" style="fill:#878787;stroke:#263238;stroke-miterlimit:10"></path><path d="M350.27,377.12a26.32,26.32,0,0,0-4.34,0,9,9,0,0,1-3.21,0c-1.14-.37-5.29,2.46-4.35,2.46a6.3,6.3,0,0,1,1.89,0,8.6,8.6,0,0,0,2.83.19,47.4,47.4,0,0,1,5.1.19c2.46.19,3.59.19,3.59.19S353.29,377.5,350.27,377.12Z" style="fill:#878787;stroke:#263238;stroke-miterlimit:10"></path><path d="M332.93,307.62s11.84,2.13,18.68,2.45,17.82.75,26.36-.11l-.42-4.91-43.77-2.77Z" style="fill:#878787;stroke:#263238;stroke-miterlimit:10"></path><rect x="349.58" y="305.48" width="7.58" height="4.7" transform="translate(20.46 -22.02) rotate(3.68)" style="fill:#fff;stroke:#263238;stroke-miterlimit:10"></rect><path d="M360.26,215.3s-22.11,6.67-22.91,6.93S329.09,303,329.09,303s6.13,1.86,24.78,3.2,27.71-.8,27.71-.8l.27-85.26S369.59,215,360.26,215.3Z" style="fill:#fff;stroke:#263238;stroke-miterlimit:10"></path><path d="M334.69,319.74l-.8,4A28.73,28.73,0,0,1,319.77,319l-7.46-4.8,1.33-6.13s10.92,5.86,13.59,6.93S334.69,319.74,334.69,319.74Z" style="fill:#fff;stroke:#263238;stroke-miterlimit:10"></path><path d="M344.81,252.34l-10.12,67.4s-5.33-1.33-12-3.73-10.13-5.32-10.13-7.72,7.73-27.71,7.73-27.71-12.52-13.85-12-16.52,13.32-29,14.92-32.24,2.4-9.32,8.53-11.45,21.31-3.2,21.31-3.2Z" style="fill:#82CB62;stroke:#263238;stroke-miterlimit:10"></path><path d="M373.05,317.88l.27,8.26s15.72-1.07,20.78-2.4,9.33-2.66,9.59-3.46-.8-6.13-.8-6.13S377.05,317.61,373.05,317.88Z" style="fill:#fff;stroke:#263238;stroke-miterlimit:10"></path><path d="M375.72,241.41,372,266.19s0,36.5.53,42.36,0,10.66,1.33,12,26.91-4.26,28.51-4.79,2.4-3.2,2.13-5.33-2.93-32.5-2.93-32.5,16.79-2.4,16.79-6.4-11.19-26.64-12-32.24-2.13-14.92-4.53-15.72-24.78-3.73-24.78-3.73Z" style="fill:#82CB62;stroke:#263238;stroke-miterlimit:10"></path><line x1="330.82" y1="245.31" x2="331.76" y2="242.21" style="fill:none;stroke:#263238;stroke-miterlimit:10"></line><line x1="321.1" y1="277.65" x2="330.04" y2="247.92" style="fill:none;stroke:#263238;stroke-miterlimit:10"></line><line x1="391.84" y1="257.17" x2="398.1" y2="278.45" style="fill:none;stroke:#263238;stroke-miterlimit:10"></line><line x1="388.77" y1="246.74" x2="391.24" y2="255.15" style="fill:none;stroke:#263238;stroke-miterlimit:10"></line><path d="M353.34,221.7,344,258.2s-4.79-24-2.66-30.91,9.86-14.92,14.39-16.51,17.31-2.67,24,3.46,4.8,17.85,1.6,25.58-8.79,21.31-8.79,21.31,1.6-40,1.6-41-6.13-5.33-10.92-5.33S353.34,221.7,353.34,221.7Z" style="fill:#fff;stroke:#263238;stroke-miterlimit:10"></path><path d="M357.53,205.71s-1.59,10.39-2.59,13-3.4,7,3,9.19,13.19-2.79,15-5.79,1.4-17.19,1.4-17.19S368.52,210.51,357.53,205.71Z" style="fill:#fff;stroke:#263238;stroke-miterlimit:10"></path><path d="M374.32,204.91s-5.8,5.6-16.79.8c0,0-.16,1-.41,2.55l.15.24s.39,5.34,4.72,7.12c3.53,1.46,9.25-4.86,12.36-8.77C374.34,205.66,374.32,204.91,374.32,204.91Z" style="fill:#263238;stroke:#263238;stroke-miterlimit:10"></path><path d="M354.32,180.37a75.21,75.21,0,0,0-2.18-8.43c-1-2.59,1.2-5.19,2.4-5.59a7,7,0,0,1,2-.4s-2-4.2,2.2-7.79,10.59-4.6,10-2.8l-.6,1.8s8.8-2.2,9.8.2-2,3.39-2,3.39,7.79-1,13,4.6.6,17.58-1,19.78a52.62,52.62,0,0,0-3.6,6.4s-2,1.79-3.8.6-2.19-12-6-15.79-12-5.4-14-3-2,7.4-3.4,8S354.32,180.37,354.32,180.37Z" style="fill:#263238;stroke:#263238;stroke-miterlimit:10"></path><path d="M356.88,171.91s-1.57,5.51-2.56,8.46-2.16,10-1.37,14.16,2.55,11.61,4.32,14a9.11,9.11,0,0,0,10,2.56c3.73-1.58,12-8.46,12.59-10.23s1.18-3.34,1.18-3.34,4.91-1.58,5.7-3.15,2.56-4.33.2-5.9-4.33.78-4.33.78-.79.79-1.38-2.16a24.11,24.11,0,0,1-.78-5.31c0-1.57-1.78-2.95-1.78-4.33a20.23,20.23,0,0,1,1.19-4.72c.19-.59-6.89-4.13-14-4.52S356.88,170.54,356.88,171.91Z" style="fill:#fff;stroke:#263238;stroke-linecap:round;stroke-miterlimit:10"></path><path d="M362,192s-.4,2.75,3.34,2.75" style="fill:none;stroke:#263238;stroke-linecap:round;stroke-miterlimit:10"></path><path d="M358.45,196.5a16.47,16.47,0,0,0,12.59,1" style="fill:none;stroke:#263238;stroke-linecap:round;stroke-miterlimit:10"></path><path d="M363.57,179s-4.72-1.19-6.89.59" style="fill:none;stroke:#263238;stroke-linecap:round;stroke-miterlimit:10"></path><path d="M369.67,179.78s5.31-.78,8.26,2.36" style="fill:none;stroke:#263238;stroke-linecap:round;stroke-miterlimit:10"></path><path d="M360.62,183.72c0,.87-.4,1.57-.89,1.57s-.88-.7-.88-1.57.39-1.58.88-1.58S360.62,182.85,360.62,183.72Z" style="fill:#263238"></path><path d="M372.81,186.08c0,.87-.39,1.57-.88,1.57s-.89-.7-.89-1.57.4-1.58.89-1.58S372.81,185.21,372.81,186.08Z" style="fill:#263238"></path><path d="M364.55,182.93a26.15,26.15,0,0,1-1.77,5.11c-.78,1.18-5.11.28-7.66-.31s-1.46-5.28-1.21-5.94C355,178.81,364.5,182.34,364.55,182.93Z" style="fill:none;stroke:#263238;stroke-linecap:round;stroke-miterlimit:10"></path><path d="M367.83,183.38a26.18,26.18,0,0,0,.24,5.4c.42,1.36,4.82,1.73,7.44,1.89s2.9-4.64,2.85-5.35C378.16,182.16,368.05,182.82,367.83,183.38Z" style="fill:none;stroke:#263238;stroke-linecap:round;stroke-miterlimit:10"></path><path d="M364.55,182.93a7.9,7.9,0,0,1,3.28.45" style="fill:none;stroke:#263238;stroke-linecap:round;stroke-miterlimit:10"></path><path d="M364.15,184.1a4.84,4.84,0,0,1,3.52.44" style="fill:none;stroke:#263238;stroke-linecap:round;stroke-miterlimit:10"></path><line x1="378.36" y1="185.32" x2="383.2" y2="188.72" style="fill:none;stroke:#263238;stroke-linecap:round;stroke-miterlimit:10"></line><path d="M400.5,273.39s-6.4,12.25-7.73,13.58a13,13,0,0,0-2.13,2.93L398.1,303s11.72-9.59,17-14.12,6.66-10.13,5.86-13.06S416,265.66,416,265.66" style="fill:#82CB62;stroke:#263238;stroke-miterlimit:10"></path><path d="M392.77,287s6.39,8.53,9.06,12.26,3.19,4,1.06,5.59-5.33,3.2-6.12,3.73-10.13-17.05-10.13-17.05Z" style="fill:#fff;stroke:#263238;stroke-miterlimit:10"></path><path d="M399.16,271.52a17.05,17.05,0,0,1,9.33-1.33" style="fill:none;stroke:#263238;stroke-miterlimit:10"></path><path d="M403.16,272.32s2.66-1.6,8.53-.27" style="fill:none;stroke:#263238;stroke-miterlimit:10"></path><polygon points="386.11 289.64 395.17 308.29 391.97 310.69 382.64 290.7 386.11 289.64" style="fill:#fff;stroke:#263238;stroke-miterlimit:10"></polygon><polygon points="314.7 295.5 318.44 301.89 324.83 292.57 320.83 287.77 314.7 295.5" style="fill:#fff;stroke:#263238;stroke-miterlimit:10"></polygon><path d="M311.51,265.39a10.82,10.82,0,0,1,9.06,4.8c3.19,5.06,1.33,13.85,1.33,13.85L310.44,295.5s-5.59-2.4-7.19-15.19,7.46-21.58,7.46-21.58" style="fill:#82CB62;stroke:#263238;stroke-miterlimit:10"></path><path d="M323.76,284.31l-1.86-2.66s-3.46,0-8.79,4.79a17.41,17.41,0,0,0-5.6,11.19l5.33,3.73s2.93-6.66,6.39-9.59a54.8,54.8,0,0,1,5.6-4.26Z" style="fill:#fff;stroke:#263238;stroke-miterlimit:10"></path><polygon points="325.89 287.51 314.97 305.62 317.9 306.42 328.03 289.11 325.89 287.51" style="fill:#fff;stroke:#263238;stroke-miterlimit:10"></polygon><path d="M356.56,443.39s2.49-7.48,1.11-9.56-9.56-3.88-13.85-4.15-6.65-.14-7.62,1-.56,5.68-.56,6.92.28,2.08,1.94,2.08a27.32,27.32,0,0,1,9.84,2.5c3.18,1.66,5.68,2.49,6.65,2.49A5.71,5.71,0,0,0,356.56,443.39Z" style="fill:#878787;stroke:#263238;stroke-miterlimit:10"></path><path d="M360.86,434.41a75.28,75.28,0,0,1,9-2.77c5.12-1.25,10.8.69,12.61,1.66s3.46.69,3.46,2.49-.28,5.13-1.39,6.51-2.21.84-5.54,1.11a96,96,0,0,0-11.63,1.8c-1.94.56-2.91-.27-3.88-2.35a47.85,47.85,0,0,1-1.8-5A7.16,7.16,0,0,1,360.86,434.41Z" style="fill:#878787;stroke:#263238;stroke-miterlimit:10"></path></g></svg>